<?xml version="1.0" encoding="UTF-8"?>
<svg xmlns="http://www.w3.org/2000/svg" xmlns:xlink="http://www.w3.org/1999/xlink" width="50pt" height="50pt" viewBox="0 0 50 50" version="1.1">
<g id="surface1">
<path style=" stroke:none;fill-rule:nonzero;fill:rgb(50.196078%,87.843137%,86.27451%);fill-opacity:1;" d="M 46.785156 25.074219 C 46.785156 37.171875 36.980469 46.976562 24.882812 46.976562 C 12.785156 46.976562 2.980469 37.171875 2.980469 25.074219 C 2.980469 12.976562 12.785156 3.171875 24.882812 3.171875 C 36.980469 3.171875 46.785156 12.976562 46.785156 25.074219 Z M 46.785156 25.074219 "/>
<path style=" stroke:none;fill-rule:nonzero;fill:rgb(0%,65.882353%,69.019608%);fill-opacity:1;" d="M 46.785156 25.074219 C 46.785156 37.171875 36.980469 46.976562 24.882812 46.976562 C 22.644531 46.976562 20.480469 46.640625 18.445312 46.015625 C 19.386719 46.140625 20.34375 46.203125 21.316406 46.203125 C 33.414062 46.203125 43.21875 36.398438 43.21875 24.300781 C 43.21875 14.445312 36.710938 6.109375 27.753906 3.359375 C 38.492188 4.765625 46.785156 13.953125 46.785156 25.074219 Z M 46.785156 25.074219 "/>
<path style=" stroke:none;fill-rule:nonzero;fill:rgb(90.588235%,90.588235%,90.588235%);fill-opacity:1;" d="M 48.046875 30.609375 L 1.714844 30.609375 C 1.121094 30.609375 0.636719 30.125 0.636719 29.527344 L 0.636719 22.933594 C 0.636719 22.335938 1.121094 21.851562 1.714844 21.851562 L 48.046875 21.851562 C 48.644531 21.851562 49.128906 22.335938 49.128906 22.933594 L 49.128906 29.527344 C 49.128906 30.125 48.644531 30.609375 48.046875 30.609375 Z M 48.046875 30.609375 "/>
<path style=" stroke:none;fill-rule:nonzero;fill:rgb(78.823529%,94.117647%,100%);fill-opacity:1;" d="M 48.046875 30.640625 L 39.535156 30.640625 L 39.535156 21.753906 L 48.046875 21.753906 C 48.644531 21.753906 49.128906 22.238281 49.128906 22.835938 L 49.128906 29.5625 C 49.128906 30.15625 48.644531 30.640625 48.046875 30.640625 Z M 48.046875 30.640625 "/>
<path style=" stroke:none;fill-rule:nonzero;fill:rgb(100%,84.705882%,43.137255%);fill-opacity:1;" d="M 44.660156 24.160156 L 45.097656 25.050781 C 45.152344 25.15625 45.253906 25.234375 45.375 25.25 L 46.355469 25.394531 C 46.65625 25.4375 46.777344 25.804688 46.558594 26.019531 L 45.847656 26.710938 C 45.761719 26.792969 45.722656 26.914062 45.742188 27.035156 L 45.910156 28.011719 C 45.960938 28.308594 45.648438 28.539062 45.378906 28.398438 L 44.5 27.9375 C 44.394531 27.878906 44.265625 27.878906 44.160156 27.9375 L 43.285156 28.398438 C 43.015625 28.539062 42.699219 28.308594 42.75 28.011719 L 42.917969 27.035156 C 42.941406 26.914062 42.898438 26.792969 42.8125 26.710938 L 42.105469 26.019531 C 41.886719 25.804688 42.007812 25.4375 42.308594 25.394531 L 43.289062 25.25 C 43.40625 25.234375 43.511719 25.15625 43.5625 25.050781 L 44.003906 24.160156 C 44.136719 23.890625 44.527344 23.890625 44.660156 24.160156 Z M 44.660156 24.160156 "/>
<path style=" stroke:none;fill-rule:nonzero;fill:rgb(60.392157%,90.588235%,99.215686%);fill-opacity:1;" d="M 48.046875 30.609375 L 46.726562 30.609375 L 46.726562 21.851562 L 48.046875 21.851562 C 48.644531 21.851562 49.128906 22.335938 49.128906 22.933594 L 49.128906 29.527344 C 49.128906 30.125 48.644531 30.609375 48.046875 30.609375 Z M 48.046875 30.609375 "/>
<path style=" stroke:none;fill-rule:nonzero;fill:rgb(0%,0%,0%);fill-opacity:1;" d="M 48.046875 21.019531 L 47.15625 21.019531 C 46.347656 16.519531 44.191406 12.371094 40.886719 9.070312 C 36.613281 4.792969 30.929688 2.4375 24.882812 2.4375 C 18.835938 2.4375 13.152344 4.792969 8.875 9.070312 C 5.546875 12.398438 3.386719 16.578125 2.589844 21.121094 L 1.714844 21.121094 C 0.714844 21.121094 -0.0976562 21.933594 -0.0976562 22.933594 L -0.0976562 29.527344 C -0.0976562 30.527344 0.714844 31.339844 1.714844 31.339844 L 3.132812 31.339844 C 4.339844 35.539062 6.75 39.339844 10.140625 42.25 C 10.445312 42.515625 10.910156 42.480469 11.171875 42.171875 C 11.4375 41.867188 11.402344 41.402344 11.09375 41.140625 C 10.21875 40.386719 9.410156 39.570312 8.679688 38.699219 C 9.800781 38.226562 10.941406 37.839844 12.097656 37.519531 C 12.644531 38.484375 13.257812 39.417969 13.9375 40.308594 C 15.429688 42.257812 17.117188 43.972656 18.910156 45.386719 C 17.417969 44.953125 15.976562 44.351562 14.617188 43.59375 C 14.261719 43.398438 13.816406 43.523438 13.621094 43.878906 C 13.421875 44.230469 13.550781 44.679688 13.902344 44.875 C 17.242188 46.730469 21.039062 47.710938 24.882812 47.710938 C 30.929688 47.710938 36.613281 45.355469 40.886719 41.082031 C 43.632812 38.335938 45.585938 35.007812 46.632812 31.375 L 48.046875 31.375 C 49.046875 31.375 49.863281 30.5625 49.863281 29.5625 L 49.863281 22.835938 C 49.863281 21.835938 49.046875 21.019531 48.046875 21.019531 Z M 45.664062 21.019531 L 40.566406 21.019531 C 40.507812 20.640625 40.441406 20.261719 40.359375 19.882812 C 39.925781 17.78125 39.246094 15.773438 38.332031 13.882812 C 38.464844 13.84375 38.601562 13.808594 38.734375 13.769531 C 39.667969 13.503906 40.855469 13.140625 42.023438 12.640625 C 43.84375 15.140625 45.078125 17.992188 45.664062 21.019531 Z M 39.097656 21.121094 L 31.53125 21.121094 C 31.503906 20.753906 31.476562 20.382812 31.445312 20.019531 C 31.300781 18.378906 31.085938 16.792969 30.808594 15.273438 C 32.910156 15.054688 34.9375 14.714844 36.882812 14.253906 C 37.8125 16.117188 38.496094 18.097656 38.925781 20.179688 C 38.992188 20.492188 39.046875 20.804688 39.097656 21.121094 Z M 39.851562 10.105469 C 40.285156 10.535156 40.691406 10.984375 41.082031 11.445312 C 40.105469 11.835938 39.125 12.132812 38.332031 12.359375 C 38.101562 12.425781 37.871094 12.488281 37.640625 12.550781 C 37.179688 11.722656 36.667969 10.914062 36.113281 10.132812 C 34.652344 8.089844 32.917969 6.300781 30.941406 4.78125 C 34.273438 5.769531 37.328125 7.578125 39.851562 10.105469 Z M 27.140625 4.023438 C 30.253906 5.773438 32.871094 8.113281 34.917969 10.984375 C 35.367188 11.609375 35.78125 12.257812 36.164062 12.914062 C 34.351562 13.328125 32.46875 13.636719 30.523438 13.832031 C 29.675781 9.882812 28.390625 6.484375 26.78125 3.988281 C 26.902344 4 27.023438 4.011719 27.140625 4.023438 Z M 24.882812 3.90625 C 24.898438 3.90625 24.917969 3.90625 24.9375 3.90625 C 26.714844 6.253906 28.140625 9.761719 29.054688 13.960938 C 27.492188 14.070312 25.886719 14.117188 24.25 14.09375 C 23.136719 14.078125 21.945312 14.042969 20.707031 13.96875 C 21.625 9.769531 23.046875 6.253906 24.828125 3.90625 C 24.847656 3.90625 24.863281 3.90625 24.882812 3.90625 Z M 22.984375 3.988281 C 21.371094 6.488281 20.082031 9.898438 19.234375 13.859375 C 17.394531 13.699219 15.476562 13.433594 13.554688 12.996094 C 13.949219 12.308594 14.378906 11.636719 14.84375 10.984375 C 16.894531 8.113281 19.511719 5.773438 22.625 4.023438 C 22.742188 4.011719 22.863281 4 22.984375 3.988281 Z M 18.949219 15.304688 C 18.675781 16.8125 18.464844 18.390625 18.320312 20.019531 C 18.289062 20.382812 18.261719 20.753906 18.234375 21.121094 L 10.664062 21.121094 C 10.714844 20.804688 10.773438 20.492188 10.839844 20.179688 C 11.261719 18.128906 11.933594 16.175781 12.839844 14.335938 C 14.910156 14.832031 16.976562 15.128906 18.949219 15.304688 Z M 9.914062 10.105469 C 12.4375 7.578125 15.492188 5.769531 18.820312 4.78125 C 16.84375 6.300781 15.113281 8.089844 13.652344 10.132812 C 13.078125 10.9375 12.554688 11.769531 12.082031 12.625 C 10.933594 12.308594 9.792969 11.921875 8.679688 11.449219 C 9.066406 10.988281 9.480469 10.539062 9.914062 10.105469 Z M 7.742188 12.644531 C 8.941406 13.167969 10.164062 13.601562 11.398438 13.953125 C 10.5 15.828125 9.832031 17.808594 9.402344 19.882812 C 9.316406 20.292969 9.246094 20.707031 9.179688 21.121094 L 4.082031 21.121094 C 4.65625 18.054688 5.902344 15.167969 7.742188 12.644531 Z M 1.714844 29.875 C 1.523438 29.875 1.367188 29.71875 1.367188 29.527344 L 1.367188 22.933594 C 1.367188 22.742188 1.523438 22.585938 1.714844 22.585938 L 22.863281 22.585938 C 23.269531 22.585938 23.597656 22.257812 23.597656 21.851562 C 23.597656 21.449219 23.269531 21.121094 22.863281 21.121094 L 19.703125 21.121094 C 19.726562 20.796875 19.75 20.472656 19.777344 20.148438 C 19.925781 18.507812 20.140625 16.925781 20.417969 15.417969 C 21.753906 15.503906 23.035156 15.542969 24.226562 15.558594 C 24.515625 15.5625 24.804688 15.566406 25.09375 15.566406 C 26.539062 15.566406 27.957031 15.511719 29.347656 15.40625 C 29.625 16.917969 29.839844 18.503906 29.984375 20.148438 C 30.015625 20.472656 30.039062 20.796875 30.0625 21.121094 L 27.4375 21.121094 C 27.03125 21.121094 26.703125 21.449219 26.703125 21.851562 C 26.703125 22.257812 27.03125 22.585938 27.4375 22.585938 L 38.800781 22.585938 L 38.800781 29.875 Z M 38.625 31.339844 C 38.203125 32.914062 37.621094 34.441406 36.878906 35.894531 C 34.9375 35.433594 32.914062 35.09375 30.816406 34.875 C 31.027344 33.730469 31.199219 32.546875 31.332031 31.339844 Z M 29.859375 31.339844 C 29.726562 32.503906 29.558594 33.640625 29.351562 34.746094 C 27.683594 34.617188 25.976562 34.566406 24.226562 34.589844 C 23.03125 34.609375 21.75 34.644531 20.410156 34.730469 C 20.203125 33.632812 20.035156 32.5 19.902344 31.339844 Z M 7.746094 37.503906 C 6.386719 35.628906 5.34375 33.546875 4.660156 31.339844 L 9.628906 31.339844 C 10.046875 33.015625 10.640625 34.644531 11.398438 36.195312 C 10.167969 36.550781 8.941406 36.980469 7.746094 37.503906 Z M 11.140625 31.339844 L 18.429688 31.339844 C 18.5625 32.539062 18.734375 33.710938 18.941406 34.84375 C 16.972656 35.023438 14.910156 35.320312 12.84375 35.8125 C 12.125 34.386719 11.554688 32.886719 11.140625 31.339844 Z M 22.617188 46.121094 C 19.875 44.578125 17.277344 42.261719 15.101562 39.417969 C 14.542969 38.691406 14.035156 37.929688 13.574219 37.148438 C 15.488281 36.714844 17.398438 36.449219 19.230469 36.289062 C 19.519531 37.621094 19.863281 38.894531 20.261719 40.09375 C 20.84375 41.855469 21.761719 44.210938 22.992188 46.160156 C 22.867188 46.148438 22.742188 46.136719 22.617188 46.121094 Z M 24.882812 46.246094 C 24.863281 46.246094 24.847656 46.246094 24.828125 46.246094 C 23.675781 44.71875 22.578125 42.4375 21.652344 39.632812 C 21.289062 38.542969 20.976562 37.386719 20.707031 36.183594 C 21.945312 36.105469 23.136719 36.070312 24.25 36.054688 C 25.886719 36.03125 27.488281 36.078125 29.054688 36.191406 C 28.785156 37.394531 28.472656 38.546875 28.113281 39.632812 C 27.1875 42.4375 26.089844 44.71875 24.9375 46.246094 C 24.917969 46.246094 24.898438 46.246094 24.882812 46.246094 Z M 26.769531 46.160156 C 28.003906 44.210938 28.921875 41.859375 29.503906 40.09375 C 29.898438 38.902344 30.238281 37.640625 30.527344 36.320312 C 32.464844 36.515625 34.339844 36.820312 36.140625 37.230469 C 35.691406 37.984375 35.199219 38.714844 34.664062 39.417969 C 32.484375 42.265625 29.882812 44.582031 27.140625 46.125 C 27.019531 46.140625 26.894531 46.152344 26.769531 46.160156 Z M 39.851562 40.042969 C 37.300781 42.597656 34.210938 44.417969 30.839844 45.398438 C 32.640625 43.984375 34.332031 42.261719 35.828125 40.308594 C 36.488281 39.441406 37.089844 38.535156 37.625 37.59375 C 37.863281 37.65625 38.097656 37.722656 38.332031 37.789062 C 39.125 38.015625 40.105469 38.3125 41.082031 38.703125 C 40.691406 39.164062 40.285156 39.613281 39.851562 40.042969 Z M 42.019531 37.507812 C 40.855469 37.007812 39.667969 36.648438 38.734375 36.378906 C 38.601562 36.34375 38.464844 36.304688 38.332031 36.269531 C 39.101562 34.707031 39.703125 33.066406 40.128906 31.375 L 45.101562 31.375 C 44.417969 33.566406 43.382812 35.636719 42.019531 37.507812 Z M 48.398438 29.527344 C 48.398438 29.71875 48.242188 29.875 48.046875 29.875 L 40.265625 29.875 L 40.265625 22.585938 L 48.046875 22.585938 C 48.242188 22.585938 48.398438 22.742188 48.398438 22.933594 Z M 48.398438 29.527344 "/>
<path style=" stroke:none;fill-rule:nonzero;fill:rgb(0%,0%,0%);fill-opacity:1;" d="M 46.460938 24.667969 L 45.671875 24.554688 L 45.316406 23.835938 C 45.128906 23.457031 44.753906 23.222656 44.332031 23.222656 C 43.910156 23.222656 43.53125 23.460938 43.347656 23.835938 L 42.992188 24.554688 L 42.203125 24.667969 C 41.785156 24.726562 41.445312 25.015625 41.316406 25.414062 C 41.183594 25.816406 41.292969 26.25 41.59375 26.542969 L 42.164062 27.097656 L 42.03125 27.886719 C 41.957031 28.300781 42.125 28.714844 42.46875 28.960938 C 42.808594 29.210938 43.25 29.242188 43.625 29.046875 L 44.332031 28.675781 L 45.039062 29.046875 C 45.199219 29.128906 45.375 29.171875 45.550781 29.171875 C 45.777344 29.171875 46.003906 29.101562 46.195312 28.960938 C 46.535156 28.714844 46.703125 28.300781 46.632812 27.886719 L 46.496094 27.097656 L 47.070312 26.542969 C 47.371094 26.25 47.476562 25.816406 47.347656 25.414062 C 47.21875 25.015625 46.878906 24.726562 46.460938 24.667969 Z M 45.335938 26.183594 C 45.078125 26.4375 44.960938 26.800781 45.019531 27.15625 L 45.0625 27.402344 L 44.84375 27.289062 C 44.523438 27.121094 44.140625 27.121094 43.820312 27.289062 L 43.597656 27.402344 L 43.640625 27.15625 C 43.703125 26.800781 43.585938 26.4375 43.324219 26.183594 L 43.148438 26.011719 L 43.394531 25.976562 C 43.75 25.921875 44.0625 25.699219 44.222656 25.375 L 44.332031 25.148438 L 44.441406 25.375 C 44.601562 25.699219 44.910156 25.921875 45.269531 25.976562 L 45.515625 26.011719 Z M 45.335938 26.183594 "/>
<path style=" stroke:none;fill-rule:nonzero;fill:rgb(0%,0%,0%);fill-opacity:1;" d="M 5.445312 27.648438 C 5.445312 27.753906 5.285156 27.867188 5.09375 27.867188 C 4.890625 27.867188 4.746094 27.753906 4.746094 27.648438 L 4.746094 24.015625 C 4.746094 23.886719 4.890625 23.796875 5.09375 23.796875 C 5.285156 23.796875 5.445312 23.886719 5.445312 24.015625 L 5.445312 25.675781 C 5.542969 25.464844 5.789062 25.265625 6.128906 25.265625 C 6.625 25.265625 7.058594 25.761719 7.058594 26.363281 L 7.058594 27.648438 C 7.058594 27.792969 6.878906 27.867188 6.707031 27.867188 C 6.546875 27.867188 6.359375 27.792969 6.359375 27.648438 L 6.359375 26.363281 C 6.359375 26.121094 6.144531 25.875 5.890625 25.875 C 5.667969 25.875 5.445312 26.0625 5.445312 26.363281 Z M 5.445312 27.648438 "/>
<path style=" stroke:none;fill-rule:nonzero;fill:rgb(0%,0%,0%);fill-opacity:1;" d="M 8.597656 26.992188 C 8.597656 27.203125 8.671875 27.277344 8.898438 27.277344 L 9.113281 27.277344 C 9.3125 27.277344 9.410156 27.425781 9.410156 27.570312 C 9.410156 27.722656 9.3125 27.867188 9.113281 27.867188 L 8.898438 27.867188 C 8.25 27.867188 7.898438 27.605469 7.898438 26.992188 L 7.898438 24.367188 C 7.898438 24.238281 8.082031 24.148438 8.246094 24.148438 C 8.425781 24.148438 8.597656 24.238281 8.597656 24.367188 L 8.597656 25.296875 L 9.234375 25.296875 C 9.347656 25.296875 9.414062 25.425781 9.414062 25.550781 C 9.414062 25.683594 9.347656 25.804688 9.234375 25.804688 L 8.597656 25.804688 Z M 8.597656 26.992188 "/>
<path style=" stroke:none;fill-rule:nonzero;fill:rgb(0%,0%,0%);fill-opacity:1;" d="M 10.800781 26.992188 C 10.800781 27.203125 10.875 27.277344 11.101562 27.277344 L 11.3125 27.277344 C 11.515625 27.277344 11.613281 27.425781 11.613281 27.570312 C 11.613281 27.722656 11.515625 27.867188 11.3125 27.867188 L 11.101562 27.867188 C 10.453125 27.867188 10.101562 27.605469 10.101562 26.992188 L 10.101562 24.367188 C 10.101562 24.238281 10.285156 24.148438 10.449219 24.148438 C 10.628906 24.148438 10.800781 24.238281 10.800781 24.367188 L 10.800781 25.296875 L 11.4375 25.296875 C 11.550781 25.296875 11.617188 25.425781 11.617188 25.550781 C 11.617188 25.683594 11.550781 25.804688 11.4375 25.804688 L 10.800781 25.804688 Z M 10.800781 26.992188 "/>
<path style=" stroke:none;fill-rule:nonzero;fill:rgb(0%,0%,0%);fill-opacity:1;" d="M 12.972656 25.515625 L 12.972656 25.675781 C 13.09375 25.464844 13.355469 25.265625 13.703125 25.265625 C 14.242188 25.265625 14.671875 25.761719 14.671875 26.363281 L 14.671875 26.808594 C 14.671875 27.386719 14.226562 27.917969 13.722656 27.917969 C 13.398438 27.917969 13.117188 27.710938 13.015625 27.488281 L 13.015625 28.84375 C 13.015625 28.957031 12.851562 29.066406 12.65625 29.066406 C 12.457031 29.066406 12.316406 28.957031 12.316406 28.84375 L 12.316406 25.515625 C 12.316406 25.382812 12.460938 25.296875 12.644531 25.296875 C 12.835938 25.296875 12.972656 25.382812 12.972656 25.515625 Z M 13.972656 26.363281 C 13.972656 26.121094 13.75 25.875 13.480469 25.875 C 13.253906 25.875 13.015625 26.0625 13.015625 26.363281 L 13.015625 26.90625 C 13.015625 27.019531 13.214844 27.304688 13.492188 27.304688 C 13.746094 27.304688 13.972656 27.058594 13.972656 26.808594 Z M 13.972656 26.363281 "/>
<path style=" stroke:none;fill-rule:nonzero;fill:rgb(0%,0%,0%);fill-opacity:1;" d="M 16.65625 27.152344 C 16.65625 26.679688 15.375 26.976562 15.375 26.070312 C 15.375 25.6875 15.617188 25.265625 16.34375 25.265625 C 16.78125 25.265625 17.203125 25.417969 17.203125 25.617188 C 17.203125 25.714844 17.113281 25.953125 16.949219 25.953125 C 16.820312 25.953125 16.652344 25.796875 16.355469 25.796875 C 16.082031 25.796875 15.976562 25.929688 15.976562 26.039062 C 15.976562 26.433594 17.273438 26.164062 17.273438 27.128906 C 17.273438 27.609375 16.917969 27.917969 16.277344 27.917969 C 15.726562 27.917969 15.300781 27.691406 15.300781 27.453125 C 15.300781 27.339844 15.394531 27.144531 15.53125 27.144531 C 15.6875 27.144531 15.808594 27.386719 16.261719 27.386719 C 16.582031 27.386719 16.65625 27.261719 16.65625 27.152344 Z M 16.65625 27.152344 "/>
<path style=" stroke:none;fill-rule:nonzero;fill:rgb(0%,0%,0%);fill-opacity:1;" d="M 18.710938 25.953125 C 18.710938 26.148438 18.542969 26.320312 18.347656 26.320312 C 18.136719 26.320312 17.980469 26.148438 17.980469 25.953125 C 17.980469 25.753906 18.136719 25.585938 18.347656 25.585938 C 18.542969 25.585938 18.710938 25.753906 18.710938 25.953125 Z M 18.710938 27.535156 C 18.710938 27.726562 18.542969 27.902344 18.347656 27.902344 C 18.136719 27.902344 17.980469 27.726562 17.980469 27.535156 C 17.980469 27.332031 18.136719 27.164062 18.347656 27.164062 C 18.542969 27.164062 18.710938 27.332031 18.710938 27.535156 Z M 18.710938 27.535156 "/>
<path style=" stroke:none;fill-rule:nonzero;fill:rgb(0%,0%,0%);fill-opacity:1;" d="M 21.800781 23.9375 C 21.800781 23.972656 21.796875 24.003906 21.777344 24.035156 L 19.835938 27.964844 C 19.796875 28.042969 19.710938 28.085938 19.625 28.085938 C 19.46875 28.085938 19.363281 27.960938 19.363281 27.847656 C 19.363281 27.816406 19.375 27.78125 19.390625 27.753906 L 21.335938 23.808594 C 21.371094 23.734375 21.449219 23.695312 21.53125 23.695312 C 21.660156 23.695312 21.800781 23.792969 21.800781 23.9375 Z M 21.800781 23.9375 "/>
<path style=" stroke:none;fill-rule:nonzero;fill:rgb(0%,0%,0%);fill-opacity:1;" d="M 23.433594 23.9375 C 23.433594 23.972656 23.429688 24.003906 23.414062 24.035156 L 21.46875 27.964844 C 21.433594 28.042969 21.347656 28.085938 21.257812 28.085938 C 21.101562 28.085938 21 27.960938 21 27.847656 C 21 27.816406 21.011719 27.78125 21.027344 27.753906 L 22.96875 23.808594 C 23.007812 23.734375 23.082031 23.695312 23.164062 23.695312 C 23.292969 23.695312 23.433594 23.792969 23.433594 23.9375 Z M 23.433594 23.9375 "/>
<path style=" stroke:none;fill-rule:nonzero;fill:rgb(0%,0%,0%);fill-opacity:1;" d="M 26.566406 27.804688 C 26.527344 27.894531 26.40625 27.929688 26.289062 27.929688 C 26.152344 27.929688 26.035156 27.886719 26 27.804688 L 25.585938 26.625 L 25.171875 27.796875 C 25.140625 27.886719 25.011719 27.929688 24.875 27.929688 C 24.761719 27.929688 24.640625 27.894531 24.605469 27.796875 L 23.769531 25.660156 C 23.75 25.617188 23.742188 25.585938 23.742188 25.558594 C 23.742188 25.390625 24.015625 25.269531 24.199219 25.269531 C 24.289062 25.269531 24.371094 25.308594 24.398438 25.382812 L 24.941406 26.921875 L 25.347656 25.585938 C 25.382812 25.460938 25.476562 25.445312 25.585938 25.445312 C 25.6875 25.445312 25.785156 25.460938 25.824219 25.585938 L 26.222656 26.925781 L 26.769531 25.382812 C 26.796875 25.3125 26.871094 25.269531 26.96875 25.269531 C 27.144531 25.269531 27.417969 25.390625 27.417969 25.5625 C 27.417969 25.59375 27.414062 25.632812 27.398438 25.660156 Z M 26.566406 27.804688 "/>
<path style=" stroke:none;fill-rule:nonzero;fill:rgb(0%,0%,0%);fill-opacity:1;" d="M 30.640625 27.804688 C 30.601562 27.894531 30.484375 27.929688 30.363281 27.929688 C 30.230469 27.929688 30.109375 27.886719 30.078125 27.804688 L 29.660156 26.625 L 29.25 27.796875 C 29.21875 27.886719 29.085938 27.929688 28.953125 27.929688 C 28.839844 27.929688 28.71875 27.894531 28.679688 27.796875 L 27.847656 25.660156 C 27.824219 25.617188 27.820312 25.585938 27.820312 25.558594 C 27.820312 25.390625 28.089844 25.269531 28.273438 25.269531 C 28.367188 25.269531 28.449219 25.308594 28.476562 25.382812 L 29.015625 26.921875 L 29.421875 25.585938 C 29.460938 25.460938 29.554688 25.445312 29.660156 25.445312 C 29.765625 25.445312 29.859375 25.460938 29.898438 25.585938 L 30.300781 26.925781 L 30.847656 25.382812 C 30.875 25.3125 30.949219 25.269531 31.046875 25.269531 C 31.21875 25.269531 31.496094 25.390625 31.496094 25.5625 C 31.496094 25.59375 31.492188 25.632812 31.472656 25.660156 Z M 30.640625 27.804688 "/>
<path style=" stroke:none;fill-rule:nonzero;fill:rgb(0%,0%,0%);fill-opacity:1;" d="M 34.71875 27.804688 C 34.679688 27.894531 34.558594 27.929688 34.441406 27.929688 C 34.304688 27.929688 34.1875 27.886719 34.152344 27.804688 L 33.738281 26.625 L 33.324219 27.796875 C 33.292969 27.886719 33.164062 27.929688 33.027344 27.929688 C 32.914062 27.929688 32.796875 27.894531 32.757812 27.796875 L 31.921875 25.660156 C 31.902344 25.617188 31.898438 25.585938 31.898438 25.558594 C 31.898438 25.390625 32.167969 25.269531 32.351562 25.269531 C 32.445312 25.269531 32.523438 25.308594 32.550781 25.382812 L 33.09375 26.921875 L 33.5 25.585938 C 33.535156 25.460938 33.628906 25.445312 33.738281 25.445312 C 33.839844 25.445312 33.9375 25.460938 33.976562 25.585938 L 34.375 26.925781 L 34.921875 25.382812 C 34.949219 25.3125 35.027344 25.269531 35.121094 25.269531 C 35.296875 25.269531 35.574219 25.390625 35.574219 25.5625 C 35.574219 25.59375 35.566406 25.632812 35.550781 25.660156 Z M 34.71875 27.804688 "/>
</g>
</svg>
