<?xml version="1.0" encoding="UTF-8"?>
<svg xmlns="http://www.w3.org/2000/svg" xmlns:xlink="http://www.w3.org/1999/xlink" width="50pt" height="50pt" viewBox="0 0 50 50" version="1.1">
<g id="surface1">
<path style=" stroke:none;fill-rule:nonzero;fill:rgb(39.607843%,69.411765%,98.823529%);fill-opacity:1;" d="M 47.0625 33.144531 C 41.023438 45.800781 31.738281 48.535156 25 48.535156 C 17.410156 48.535156 10.261719 44.746094 5.867188 38.566406 C 1.445312 32.324219 0.390625 24.414062 2.9375 16.855469 L 3.410156 15.886719 C 6.984375 7.363281 15.65625 1.464844 25 1.464844 C 32.589844 1.464844 39.738281 5.253906 44.132812 11.433594 C 48.554688 17.675781 49.609375 25.585938 47.0625 33.144531 Z M 47.0625 33.144531 "/>
<path style=" stroke:none;fill-rule:nonzero;fill:rgb(8.627451%,53.72549%,98.823529%);fill-opacity:1;" d="M 47.0625 33.144531 C 41.023438 45.800781 31.738281 48.535156 25 48.535156 L 25 1.464844 C 32.589844 1.464844 39.738281 5.253906 44.132812 11.433594 C 48.554688 17.675781 49.609375 25.585938 47.0625 33.144531 Z M 47.0625 33.144531 "/>
<path style=" stroke:none;fill-rule:nonzero;fill:rgb(58.823529%,92.156863%,90.196078%);fill-opacity:1;" d="M 45.332031 10.585938 C 40.644531 4.023438 33.054688 0 25 0 C 14.949219 0 5.753906 6.308594 1.972656 15.59375 L 1.472656 16.621094 C -1.214844 24.8125 -0.167969 32.570312 4.667969 39.414062 C 9.355469 45.976562 16.945312 50 25 50 C 34.929688 50 44.011719 43.839844 47.910156 34.757812 L 48.347656 33.878906 C 51.277344 25.542969 50.253906 17.539062 45.332031 10.585938 Z M 7.070312 37.714844 C 2.910156 31.855469 1.945312 24.445312 4.34375 17.324219 L 4.726562 16.53125 C 7.097656 10.847656 11.816406 6.445312 17.441406 4.335938 C 13.898438 8.964844 11.757812 17.96875 12.019531 20.898438 C 11.992188 20.988281 11.960938 21.074219 11.960938 21.191406 C 11.199219 31.007812 13.425781 40.476562 17.617188 45.78125 C 13.425781 44.257812 9.707031 41.4375 7.070312 37.714844 Z M 23.535156 46.804688 C 22.507812 46.453125 21.484375 45.683594 20.515625 44.65625 C 16.414062 40.234375 14.160156 30.890625 14.890625 21.425781 L 14.890625 21.160156 C 14.890625 21.074219 14.921875 20.957031 14.921875 20.867188 C 15.773438 11.757812 19.34375 4.570312 23.535156 3.191406 Z M 26.464844 46.777344 L 26.464844 3.191406 C 30.976562 4.6875 34.757812 12.988281 35.195312 22.890625 C 35.605469 32.03125 33.320312 40.617188 29.363281 44.773438 C 28.425781 45.742188 27.460938 46.453125 26.464844 46.777344 Z M 45.65625 32.675781 C 42.375 39.589844 37.742188 43.847656 32.382812 45.75 C 36.308594 40.800781 38.535156 31.972656 38.125 22.773438 C 37.773438 14.980469 35.574219 8.261719 32.382812 4.21875 C 36.570312 5.742188 40.292969 8.5625 42.929688 12.285156 C 47.089844 18.144531 48.054688 25.554688 45.65625 32.675781 Z M 45.65625 32.675781 "/>
<path style=" stroke:none;fill-rule:nonzero;fill:rgb(0%,78.431373%,78.431373%);fill-opacity:1;" d="M 45.332031 10.585938 C 40.644531 4.023438 33.054688 0 25 0 L 25 50 C 34.929688 50 44.011719 43.839844 47.910156 34.757812 L 48.347656 33.878906 C 51.277344 25.542969 50.253906 17.539062 45.332031 10.585938 Z M 26.464844 46.777344 L 26.464844 3.191406 C 30.976562 4.6875 34.757812 12.988281 35.195312 22.890625 C 35.605469 32.03125 33.320312 40.617188 29.363281 44.773438 C 28.425781 45.742188 27.460938 46.453125 26.464844 46.777344 Z M 45.65625 32.675781 C 42.375 39.589844 37.742188 43.847656 32.382812 45.75 C 36.308594 40.800781 38.535156 31.972656 38.125 22.773438 C 37.773438 14.980469 35.574219 8.261719 32.382812 4.21875 C 36.570312 5.742188 40.292969 8.5625 42.929688 12.285156 C 47.089844 18.144531 48.054688 25.554688 45.65625 32.675781 Z M 45.65625 32.675781 "/>
<path style=" stroke:none;fill-rule:nonzero;fill:rgb(0%,32.54902%,74.901961%);fill-opacity:1;" d="M 45.507812 14.746094 L 4.492188 14.746094 C 2.058594 14.746094 0 16.707031 0 19.140625 L 0 30.859375 C 0 33.292969 2.058594 35.253906 4.492188 35.253906 L 45.507812 35.253906 C 47.941406 35.253906 50 33.292969 50 30.859375 L 50 19.140625 C 50 16.707031 47.941406 14.746094 45.507812 14.746094 Z M 45.507812 14.746094 "/>
<path style=" stroke:none;fill-rule:nonzero;fill:rgb(1.960784%,21.568627%,49.803922%);fill-opacity:1;" d="M 50 19.140625 L 50 30.859375 C 50 33.292969 47.941406 35.253906 45.507812 35.253906 L 25 35.253906 L 25 14.746094 L 45.507812 14.746094 C 47.941406 14.746094 50 16.707031 50 19.140625 Z M 50 19.140625 "/>
<path style=" stroke:none;fill-rule:nonzero;fill:rgb(88.235294%,94.509804%,98.039216%);fill-opacity:1;" d="M 32.179688 22.714844 L 29.25 28.574219 C 28.984375 29.070312 28.484375 29.394531 27.929688 29.394531 C 27.375 29.394531 26.875 29.070312 26.613281 28.574219 L 25 25.351562 L 23.390625 28.574219 C 22.890625 29.570312 21.25 29.570312 20.75 28.574219 L 17.820312 22.714844 C 17.472656 22.011719 17.765625 21.132812 18.496094 20.75 C 19.199219 20.402344 20.078125 20.695312 20.460938 21.425781 L 22.070312 24.648438 L 23.679688 21.425781 C 23.945312 20.929688 24.472656 20.664062 25 20.664062 C 25.527344 20.664062 26.054688 20.929688 26.320312 21.425781 L 27.929688 24.648438 L 29.542969 21.425781 C 29.921875 20.695312 30.800781 20.402344 31.503906 20.75 C 32.234375 21.132812 32.527344 22.011719 32.179688 22.714844 Z M 32.179688 22.714844 "/>
<path style=" stroke:none;fill-rule:nonzero;fill:rgb(74.901961%,88.235294%,100%);fill-opacity:1;" d="M 42.578125 29.394531 C 42.023438 29.394531 41.515625 29.082031 41.269531 28.585938 L 39.648438 25.347656 L 38.027344 28.585938 C 37.53125 29.578125 35.90625 29.578125 35.410156 28.585938 L 32.601562 22.96875 C 32.421875 22.746094 32.304688 22.472656 32.28125 22.167969 C 32.230469 21.359375 32.800781 20.667969 33.605469 20.613281 C 34.21875 20.601562 34.835938 20.890625 35.097656 21.414062 L 36.71875 24.652344 L 38.339844 21.414062 C 38.835938 20.421875 40.460938 20.421875 40.957031 21.414062 L 42.578125 24.652344 L 44.199219 21.414062 C 44.5625 20.691406 45.441406 20.402344 46.164062 20.761719 C 46.886719 21.121094 47.179688 22 46.816406 22.726562 L 43.886719 28.585938 C 43.640625 29.082031 43.132812 29.394531 42.578125 29.394531 Z M 42.578125 29.394531 "/>
<path style=" stroke:none;fill-rule:nonzero;fill:rgb(88.235294%,94.509804%,98.039216%);fill-opacity:1;" d="M 16.304688 20.609375 C 15.730469 20.601562 15.164062 20.890625 14.902344 21.414062 L 13.28125 24.652344 L 11.660156 21.414062 C 11.132812 20.363281 9.5625 20.371094 9.042969 21.414062 L 7.421875 24.652344 L 5.800781 21.414062 C 5.4375 20.691406 4.558594 20.402344 3.835938 20.761719 C 3.113281 21.121094 2.820312 22 3.183594 22.726562 L 6.113281 28.585938 C 6.359375 29.082031 6.867188 29.394531 7.421875 29.394531 C 7.976562 29.394531 8.484375 29.082031 8.730469 28.585938 L 10.351562 25.347656 L 11.972656 28.585938 C 12.21875 29.082031 12.726562 29.394531 13.28125 29.394531 C 13.835938 29.394531 14.34375 29.082031 14.589844 28.585938 L 17.351562 23.066406 C 17.558594 22.828125 17.695312 22.515625 17.71875 22.167969 C 17.769531 21.359375 17.113281 20.660156 16.304688 20.609375 Z M 16.304688 20.609375 "/>
<path style=" stroke:none;fill-rule:nonzero;fill:rgb(74.901961%,88.235294%,100%);fill-opacity:1;" d="M 32.179688 22.714844 L 29.25 28.574219 C 28.984375 29.070312 28.484375 29.394531 27.929688 29.394531 C 27.375 29.394531 26.875 29.070312 26.613281 28.574219 L 25 25.351562 L 25 20.664062 C 25.527344 20.664062 26.054688 20.929688 26.320312 21.425781 L 27.929688 24.648438 L 29.542969 21.425781 C 29.921875 20.695312 30.800781 20.402344 31.503906 20.75 C 32.234375 21.132812 32.527344 22.011719 32.179688 22.714844 Z M 32.179688 22.714844 "/>
</g>
</svg>
