<?xml version="1.0" encoding="UTF-8"?>
<svg xmlns="http://www.w3.org/2000/svg" xmlns:xlink="http://www.w3.org/1999/xlink" width="50pt" height="50pt" viewBox="0 0 50 50" version="1.1">
<g id="surface1">
<path style=" stroke:none;fill-rule:nonzero;fill:rgb(0%,45.490196%,63.921569%);fill-opacity:1;" d="M 50 25 C 50 38.808594 38.808594 50 25 50 C 11.191406 50 0 38.808594 0 25 C 0 11.191406 11.191406 0 25 0 C 38.808594 0 50 11.191406 50 25 Z M 50 25 "/>
<path style=" stroke:none;fill-rule:nonzero;fill:rgb(0%,36.078431%,51.372549%);fill-opacity:1;" d="M 50 25 C 50 24.570312 49.992188 24.148438 49.96875 23.730469 L 35.039062 8.847656 L 8.847656 35.046875 L 23.59375 49.960938 C 24.0625 49.992188 24.53125 50 25 50 C 38.808594 50 50 38.808594 50 25 Z M 50 25 "/>
<path style=" stroke:none;fill-rule:nonzero;fill:rgb(100%,86.27451%,0%);fill-opacity:1;" d="M 5.90625 25 C 5.90625 23.359375 7.65625 21.972656 8.066406 20.460938 C 8.484375 18.898438 7.675781 16.816406 8.464844 15.449219 C 9.265625 14.0625 11.484375 13.730469 12.609375 12.597656 C 13.730469 11.464844 14.0625 9.257812 15.457031 8.457031 C 16.828125 7.664062 18.90625 8.476562 20.46875 8.054688 C 21.980469 7.65625 23.367188 5.898438 25.007812 5.898438 C 26.648438 5.898438 28.035156 7.648438 29.550781 8.054688 C 31.113281 8.476562 33.195312 7.664062 34.5625 8.457031 C 35.945312 9.257812 36.28125 11.476562 37.414062 12.597656 C 38.542969 13.71875 40.75 14.054688 41.550781 15.449219 C 42.34375 16.816406 41.53125 18.898438 41.953125 20.460938 C 42.351562 21.972656 44.109375 23.359375 44.109375 25 C 44.109375 26.640625 42.363281 28.027344 41.953125 29.539062 C 41.53125 31.101562 42.34375 33.183594 41.550781 34.550781 C 40.75 35.9375 38.535156 36.269531 37.414062 37.402344 C 36.289062 38.535156 35.957031 40.742188 34.5625 41.542969 C 33.195312 42.335938 31.113281 41.523438 29.550781 41.945312 C 28.035156 42.34375 26.648438 44.101562 25.007812 44.101562 C 23.367188 44.101562 21.980469 42.355469 20.46875 41.945312 C 18.90625 41.523438 16.824219 42.335938 15.457031 41.542969 C 14.070312 40.742188 13.738281 38.523438 12.605469 37.402344 C 11.472656 36.28125 9.265625 35.9375 8.46875 34.550781 C 7.675781 33.183594 8.484375 31.101562 8.066406 29.539062 C 7.65625 28.027344 5.90625 26.640625 5.90625 25 Z M 5.90625 25 "/>
<path style=" stroke:none;fill-rule:nonzero;fill:rgb(100%,86.27451%,0%);fill-opacity:1;" d="M 5.90625 25 C 5.90625 23.359375 7.65625 21.972656 8.066406 20.460938 C 8.484375 18.898438 7.675781 16.816406 8.464844 15.449219 C 9.265625 14.0625 11.484375 13.730469 12.609375 12.597656 C 13.730469 11.464844 14.0625 9.257812 15.457031 8.457031 C 16.828125 7.664062 18.90625 8.476562 20.46875 8.054688 C 21.980469 7.65625 23.367188 5.898438 25.007812 5.898438 C 26.648438 5.898438 28.035156 7.648438 29.550781 8.054688 C 31.113281 8.476562 33.195312 7.664062 34.5625 8.457031 C 35.945312 9.257812 36.28125 11.476562 37.414062 12.597656 C 38.542969 13.71875 40.75 14.054688 41.550781 15.449219 C 42.34375 16.816406 41.53125 18.898438 41.953125 20.460938 C 42.351562 21.972656 44.109375 23.359375 44.109375 25 C 44.109375 26.640625 42.363281 28.027344 41.953125 29.539062 C 41.53125 31.101562 42.34375 33.183594 41.550781 34.550781 C 40.75 35.9375 38.535156 36.269531 37.414062 37.402344 C 36.289062 38.535156 35.957031 40.742188 34.5625 41.542969 C 33.195312 42.335938 31.113281 41.523438 29.550781 41.945312 C 28.035156 42.34375 26.648438 44.101562 25.007812 44.101562 C 23.367188 44.101562 21.980469 42.355469 20.46875 41.945312 C 18.90625 41.523438 16.824219 42.335938 15.457031 41.542969 C 14.070312 40.742188 13.738281 38.523438 12.605469 37.402344 C 11.472656 36.28125 9.265625 35.9375 8.46875 34.550781 C 7.675781 33.183594 8.484375 31.101562 8.066406 29.539062 C 7.65625 28.027344 5.90625 26.640625 5.90625 25 Z M 5.90625 25 "/>
<path style=" stroke:none;fill-rule:nonzero;fill:rgb(100%,75.294118%,0%);fill-opacity:1;" d="M 44.09375 25 C 44.09375 23.359375 42.34375 21.972656 41.933594 20.460938 C 41.515625 18.898438 42.324219 16.816406 41.53125 15.449219 C 40.734375 14.0625 38.515625 13.730469 37.390625 12.597656 C 36.269531 11.476562 35.9375 9.257812 34.539062 8.457031 C 33.171875 7.664062 31.09375 8.476562 29.53125 8.054688 C 28.027344 7.65625 26.660156 5.929688 25.039062 5.898438 L 25.039062 44.082031 C 26.660156 44.054688 28.035156 42.324219 29.53125 41.921875 C 31.09375 41.503906 33.171875 42.3125 34.539062 41.523438 C 35.929688 40.722656 36.257812 38.503906 37.390625 37.382812 C 38.515625 36.257812 40.734375 35.929688 41.53125 34.53125 C 42.324219 33.164062 41.515625 31.082031 41.933594 29.519531 C 42.34375 28.027344 44.09375 26.640625 44.09375 25 Z M 44.09375 25 "/>
<path style=" stroke:none;fill-rule:nonzero;fill:rgb(94.509804%,20%,24.705882%);fill-opacity:1;" d="M 39.601562 25 C 39.601562 33.0625 33.0625 39.601562 25 39.601562 C 16.9375 39.601562 10.398438 33.0625 10.398438 25 C 10.398438 16.9375 16.9375 10.398438 25 10.398438 C 33.0625 10.398438 39.601562 16.9375 39.601562 25 Z M 39.601562 25 "/>
<path style=" stroke:none;fill-rule:nonzero;fill:rgb(68.235294%,15.686275%,24.705882%);fill-opacity:1;" d="M 39.601562 25 C 39.601562 16.953125 33.085938 10.417969 25.039062 10.398438 L 25.039062 39.601562 C 33.085938 39.578125 39.601562 33.046875 39.601562 25 Z M 39.601562 25 "/>
<path style=" stroke:none;fill-rule:nonzero;fill:rgb(100%,100%,100%);fill-opacity:1;" d="M 16.640625 23.515625 C 16.609375 23.484375 16.542969 23.4375 16.414062 23.367188 C 16.296875 23.289062 16.140625 23.222656 15.96875 23.132812 C 15.792969 23.046875 15.585938 22.988281 15.371094 22.921875 C 15.15625 22.863281 14.941406 22.832031 14.726562 22.832031 C 14.445312 22.832031 14.230469 22.882812 14.082031 22.976562 C 13.9375 23.078125 13.859375 23.222656 13.859375 23.417969 C 13.859375 23.535156 13.886719 23.644531 13.953125 23.71875 C 14.023438 23.796875 14.121094 23.875 14.238281 23.9375 C 14.367188 24.003906 14.511719 24.054688 14.695312 24.109375 C 14.882812 24.160156 15.097656 24.226562 15.332031 24.289062 C 15.671875 24.382812 15.976562 24.484375 16.25 24.589844 C 16.523438 24.695312 16.757812 24.835938 16.953125 25 C 17.148438 25.164062 17.296875 25.359375 17.402344 25.597656 C 17.507812 25.828125 17.558594 26.113281 17.558594 26.4375 C 17.558594 26.835938 17.480469 27.179688 17.332031 27.453125 C 17.1875 27.726562 16.980469 27.949219 16.738281 28.125 C 16.492188 28.289062 16.199219 28.417969 15.878906 28.496094 C 15.554688 28.574219 15.222656 28.613281 14.882812 28.613281 C 14.617188 28.613281 14.355469 28.59375 14.082031 28.554688 C 13.808594 28.515625 13.542969 28.457031 13.28125 28.378906 C 13.019531 28.300781 12.761719 28.210938 12.519531 28.105469 C 12.273438 27.996094 12.039062 27.871094 11.835938 27.734375 L 12.558594 26.296875 C 12.585938 26.328125 12.6875 26.394531 12.832031 26.492188 C 12.976562 26.589844 13.164062 26.679688 13.367188 26.777344 C 13.585938 26.875 13.828125 26.953125 14.09375 27.03125 C 14.355469 27.109375 14.628906 27.136719 14.902344 27.136719 C 15.488281 27.136719 15.773438 26.960938 15.773438 26.609375 C 15.773438 26.476562 15.734375 26.367188 15.644531 26.28125 C 15.558594 26.191406 15.441406 26.113281 15.285156 26.046875 C 15.128906 25.976562 14.953125 25.910156 14.746094 25.851562 C 14.542969 25.792969 14.316406 25.722656 14.0625 25.644531 C 13.730469 25.546875 13.449219 25.4375 13.214844 25.320312 C 12.96875 25.207031 12.773438 25.070312 12.609375 24.914062 C 12.453125 24.757812 12.324219 24.578125 12.257812 24.382812 C 12.179688 24.179688 12.140625 23.953125 12.140625 23.683594 C 12.140625 23.3125 12.207031 22.980469 12.355469 22.6875 C 12.492188 22.402344 12.6875 22.160156 12.921875 21.964844 C 13.164062 21.769531 13.4375 21.621094 13.761719 21.515625 C 14.074219 21.417969 14.414062 21.367188 14.765625 21.367188 C 15.019531 21.367188 15.265625 21.386719 15.507812 21.4375 C 15.753906 21.484375 15.976562 21.542969 16.191406 21.613281 C 16.40625 21.691406 16.613281 21.769531 16.808594 21.867188 C 17.003906 21.964844 17.179688 22.050781 17.324219 22.148438 Z M 16.640625 23.515625 "/>
<path style=" stroke:none;fill-rule:nonzero;fill:rgb(100%,100%,100%);fill-opacity:1;" d="M 17.695312 28.546875 L 20.429688 21.425781 L 21.757812 21.425781 L 24.484375 28.546875 L 22.734375 28.546875 L 22.1875 26.953125 L 19.96875 26.953125 L 19.433594 28.546875 Z M 21.09375 23.171875 L 20.242188 25.820312 L 21.914062 25.820312 Z M 21.09375 23.171875 "/>
<path style=" stroke:none;fill-rule:nonzero;fill:rgb(87.843137%,87.843137%,87.843137%);fill-opacity:1;" d="M 26.191406 28.546875 L 26.191406 21.425781 L 27.832031 21.425781 L 27.832031 27.101562 L 31.28125 27.101562 L 31.28125 28.546875 Z M 26.191406 28.546875 "/>
<path style=" stroke:none;fill-rule:nonzero;fill:rgb(87.843137%,87.843137%,87.843137%);fill-opacity:1;" d="M 37.089844 27.101562 L 37.089844 28.546875 L 32.089844 28.546875 L 32.089844 21.425781 L 37 21.425781 L 37 22.871094 L 33.730469 22.871094 L 33.730469 24.257812 L 36.53125 24.257812 L 36.53125 25.585938 L 33.730469 25.585938 L 33.730469 27.101562 Z M 37.089844 27.101562 "/>
</g>
</svg>
