<?xml version="1.0" encoding="utf-8"?>
<!-- Generator: Adobe Illustrator 23.0.3, SVG Export Plug-In . SVG Version: 6.00 Build 0)  -->
<svg version="1.1" id="Capa_1" xmlns="http://www.w3.org/2000/svg" xmlns:xlink="http://www.w3.org/1999/xlink" x="0px" y="0px"
	 viewBox="0 0 512 512" style="enable-background:new 0 0 512 512;" xml:space="preserve">
<style type="text/css">
	.st0{fill:#0074A3;}
	.st1{fill:#005C83;}
	.st2{fill:#FFDC00;}
	.st3{fill:#FFC000;}
	.st4{fill:#F1333F;}
	.st5{fill:#AE283F;}
	.st6{fill:#FFFFFF;}
	.st7{fill:#E0E0E0;}
</style>
<circle class="st0" cx="256" cy="256" r="256"/>
<path class="st1" d="M512,256c0-4.4-0.1-8.7-0.3-13L358.8,90.6L90.6,358.9l151,152.7c4.8,0.3,9.6,0.4,14.4,0.4
	C397.4,512,512,397.4,512,256z"/>
<path id="SVGCleanerId_0" class="st2" d="M60.5,256c0-16.8,17.9-31,22.1-46.5c4.3-16-4-37.3,4.1-51.3c8.2-14.2,30.9-17.6,42.4-29.2
	s14.9-34.2,29.2-42.4c14-8.1,35.3,0.2,51.3-4.1c15.5-4.1,29.7-22.1,46.5-22.1s31,17.9,46.5,22.1c16,4.3,37.3-4,51.3,4.1
	c14.2,8.2,17.6,30.9,29.2,42.4s34.2,14.9,42.4,29.2c8.1,14-0.2,35.3,4.1,51.3c4.1,15.5,22.1,29.7,22.1,46.5s-17.9,31-22.1,46.5
	c-4.3,16,4,37.3-4.1,51.3c-8.2,14.2-30.9,17.6-42.4,29.2s-14.9,34.2-29.2,42.4c-14,8.1-35.3-0.2-51.3,4.1
	c-15.5,4.1-29.7,22.1-46.5,22.1s-31-17.9-46.5-22.1c-16-4.3-37.3,4-51.3-4.1c-14.2-8.2-17.6-30.9-29.2-42.4S94.9,368,86.7,353.8
	c-8.1-14,0.2-35.3-4.1-51.3C78.4,287,60.5,272.8,60.5,256z"/>
<g>
	<path id="SVGCleanerId_0_1_" class="st2" d="M60.5,256c0-16.8,17.9-31,22.1-46.5c4.3-16-4-37.3,4.1-51.3
		c8.2-14.2,30.9-17.6,42.4-29.2s14.9-34.2,29.2-42.4c14-8.1,35.3,0.2,51.3-4.1c15.5-4.1,29.7-22.1,46.5-22.1s31,17.9,46.5,22.1
		c16,4.3,37.3-4,51.3,4.1c14.2,8.2,17.6,30.9,29.2,42.4s34.2,14.9,42.4,29.2c8.1,14-0.2,35.3,4.1,51.3c4.1,15.5,22.1,29.7,22.1,46.5
		s-17.9,31-22.1,46.5c-4.3,16,4,37.3-4.1,51.3c-8.2,14.2-30.9,17.6-42.4,29.2s-14.9,34.2-29.2,42.4c-14,8.1-35.3-0.2-51.3,4.1
		c-15.5,4.1-29.7,22.1-46.5,22.1s-31-17.9-46.5-22.1c-16-4.3-37.3,4-51.3-4.1c-14.2-8.2-17.6-30.9-29.2-42.4S94.9,368,86.7,353.8
		c-8.1-14,0.2-35.3-4.1-51.3C78.4,287,60.5,272.8,60.5,256z"/>
</g>
<path class="st3" d="M451.5,256c0-16.8-17.9-31-22.1-46.5c-4.3-16,4-37.3-4.1-51.3c-8.2-14.2-30.9-17.6-42.4-29.2
	c-11.5-11.5-14.9-34.2-29.2-42.4c-14-8.1-35.3,0.2-51.3-4.1c-15.4-4.1-29.4-21.8-46-22.1v391c16.6-0.3,30.7-18,46-22.1
	c16-4.3,37.3,4,51.3-4.1c14.2-8.2,17.6-30.9,29.2-42.4c11.5-11.5,34.2-14.9,42.4-29.2c8.1-14-0.2-35.3,4.1-51.3
	C433.6,287,451.5,272.8,451.5,256z"/>
<circle class="st4" cx="256" cy="256" r="149.5"/>
<path class="st5" d="M405.5,256c0-82.4-66.7-149.3-149.1-149.5v299C338.8,405.3,405.5,338.4,405.5,256z"/>
<g>
	<path class="st6" d="M170.4,240.8c-0.3-0.3-1-0.8-2.3-1.5c-1.2-0.8-2.8-1.5-4.6-2.4s-3.9-1.5-6.1-2.2c-2.2-0.6-4.4-0.9-6.6-0.9
		c-2.9,0-5.1,0.5-6.6,1.5s-2.3,2.5-2.3,4.5c0,1.2,0.3,2.3,1,3.1c0.7,0.8,1.7,1.6,2.9,2.2c1.3,0.7,2.8,1.2,4.7,1.8
		c1.9,0.5,4.1,1.2,6.5,1.8c3.5,1,6.6,2,9.4,3.1c2.8,1.1,5.2,2.5,7.2,4.2c2,1.7,3.5,3.7,4.6,6.1c1.1,2.4,1.6,5.3,1.6,8.6
		c0,4.1-0.8,7.6-2.3,10.4c-1.5,2.8-3.6,5.1-6.1,6.9c-2.5,1.7-5.5,3-8.8,3.8c-3.3,0.8-6.7,1.2-10.2,1.2c-2.7,0-5.4-0.2-8.2-0.6
		c-2.8-0.4-5.5-1-8.2-1.8c-2.7-0.8-5.3-1.7-7.8-2.8c-2.5-1.1-4.9-2.4-7-3.8l7.4-14.7c0.3,0.3,1.3,1,2.8,2c1.5,1,3.4,1.9,5.5,2.9
		c2.2,1,4.7,1.8,7.4,2.6c2.7,0.8,5.5,1.1,8.3,1.1c6,0,8.9-1.8,8.9-5.4c0-1.4-0.4-2.5-1.3-3.4c-0.9-0.9-2.1-1.7-3.7-2.4
		c-1.6-0.7-3.4-1.4-5.5-2c-2.1-0.6-4.4-1.3-7-2.1c-3.4-1-6.3-2.1-8.7-3.3c-2.5-1.2-4.5-2.6-6.2-4.2c-1.6-1.6-2.9-3.4-3.6-5.4
		c-0.8-2.1-1.2-4.4-1.2-7.2c0-3.8,0.7-7.2,2.2-10.2c1.4-2.9,3.4-5.4,5.8-7.4c2.5-2,5.3-3.5,8.6-4.6c3.2-1,6.7-1.5,10.3-1.5
		c2.6,0,5.1,0.2,7.6,0.7c2.5,0.5,4.8,1.1,7,1.8c2.2,0.8,4.3,1.6,6.3,2.6c2,1,3.8,1.9,5.3,2.9L170.4,240.8z"/>
	<path class="st6" d="M181.2,292.3l28-72.9h13.6l27.9,72.9h-17.9l-5.6-16.3h-22.7l-5.5,16.3L181.2,292.3L181.2,292.3z M216,237.3
		l-8.7,27.1h17.1L216,237.3z"/>
</g>
<g>
	<path class="st7" d="M268.2,292.3v-72.9H285v58.1h35.3v14.8L268.2,292.3L268.2,292.3z"/>
	<path class="st7" d="M379.8,277.5v14.8h-51.2v-72.9h50.3v14.8h-33.5v14.2h28.7v13.6h-28.7v15.5L379.8,277.5L379.8,277.5
		L379.8,277.5z"/>
</g>
</svg>
