<?xml version="1.0" encoding="UTF-8"?>
<svg xmlns="http://www.w3.org/2000/svg" xmlns:xlink="http://www.w3.org/1999/xlink" width="50pt" height="50pt" viewBox="0 0 50 50" version="1.1">
<defs>
<clipPath id="clip1">
  <path d="M 50 25 C 50 38.808594 38.808594 50 25 50 C 11.191406 50 0 38.808594 0 25 C 0 11.191406 11.191406 0 25 0 C 38.808594 0 50 11.191406 50 25 Z M 50 25 "/>
</clipPath>
<filter id="alpha" filterUnits="objectBoundingBox" x="0%" y="0%" width="100%" height="100%">
  <feColorMatrix type="matrix" in="SourceGraphic" values="0 0 0 0 1 0 0 0 0 1 0 0 0 0 1 0 0 0 1 0"/>
</filter>
<mask id="mask0">
  <g filter="url(#alpha)">
<rect x="0" y="0" width="50" height="50" style="fill:rgb(0%,0%,0%);fill-opacity:0.419608;stroke:none;"/>
  </g>
</mask>
<linearGradient id="linear0" gradientUnits="userSpaceOnUse" x1="466.86" y1="338.14" x2="172.49" y2="632.51" gradientTransform="matrix(0.0625,0,0,0.0625,0,0)">
<stop offset="0" style="stop-color:rgb(0%,0%,0%);stop-opacity:1;"/>
<stop offset="1" style="stop-color:rgb(0%,0%,0%);stop-opacity:0;"/>
</linearGradient>
<clipPath id="clip2">
  <rect x="0" y="0" width="50" height="50"/>
</clipPath>
<g id="surface5" clip-path="url(#clip2)">
<path style=" stroke:none;fill-rule:nonzero;fill:url(#linear0);" d="M 17.707031 49.332031 L 36.542969 30.496094 L 35.09375 29.886719 L 36.542969 28.4375 L 35.09375 27.828125 L 36.542969 26.378906 L 35.09375 25.769531 L 36.542969 24.320312 L 35.09375 23.710938 L 36.542969 22.261719 L 35.09375 21.652344 L 36.542969 20.203125 L 34.882812 19.503906 L 32.910156 21.476562 L 32.910156 18.871094 L 31.441406 17.402344 L 28.835938 17.402344 L 30.808594 15.429688 L 30.109375 13.769531 L 28.660156 15.21875 L 28.050781 13.769531 L 26.601562 15.21875 L 25.992188 13.769531 L 24.542969 15.21875 L 23.933594 13.769531 L 22.484375 15.21875 L 21.875 13.769531 L 20.425781 15.21875 L 19.816406 13.769531 L 0.824219 32.761719 C 3.640625 40.585938 9.0625 46.277344 17.707031 49.332031 Z M 17.707031 49.332031 "/>
</g>
<clipPath id="clip3">
  <path d="M 17 16 L 34 16 L 34 34 L 17 34 Z M 17 16 "/>
</clipPath>
<clipPath id="clip4">
  <path d="M 50 25 C 50 38.808594 38.808594 50 25 50 C 11.191406 50 0 38.808594 0 25 C 0 11.191406 11.191406 0 25 0 C 38.808594 0 50 11.191406 50 25 Z M 50 25 "/>
</clipPath>
<clipPath id="clip5">
  <path d="M 14 13 L 37 13 L 37 37 L 14 37 Z M 14 13 "/>
</clipPath>
<clipPath id="clip6">
  <path d="M 50 25 C 50 38.808594 38.808594 50 25 50 C 11.191406 50 0 38.808594 0 25 C 0 11.191406 11.191406 0 25 0 C 38.808594 0 50 11.191406 50 25 Z M 50 25 "/>
</clipPath>
</defs>
<g id="surface1">
<path style=" stroke:none;fill-rule:nonzero;fill:rgb(10.980392%,54.117647%,85.882353%);fill-opacity:1;" d="M 50 25 C 50 38.808594 38.808594 50 25 50 C 11.191406 50 0 38.808594 0 25 C 0 11.191406 11.191406 0 25 0 C 38.808594 0 50 11.191406 50 25 Z M 50 25 "/>
<g clip-path="url(#clip1)" clip-rule="nonzero">
<use xlink:href="#surface5" mask="url(#mask0)"/>
</g>
<g clip-path="url(#clip3)" clip-rule="nonzero">
<g clip-path="url(#clip4)" clip-rule="nonzero">
<path style=" stroke:none;fill-rule:nonzero;fill:rgb(100%,100%,100%);fill-opacity:1;" d="M 18.734375 16.847656 L 17.160156 18.421875 L 17.160156 31.578125 L 18.734375 33.152344 L 31.890625 33.152344 L 33.464844 31.578125 L 33.464844 18.421875 L 31.890625 16.847656 Z M 32.910156 31.128906 L 31.441406 32.597656 L 19.183594 32.597656 L 17.714844 31.128906 L 17.714844 18.871094 L 19.183594 17.402344 L 31.441406 17.402344 L 32.910156 18.871094 Z M 32.910156 31.128906 "/>
</g>
</g>
<g clip-path="url(#clip5)" clip-rule="nonzero">
<g clip-path="url(#clip6)" clip-rule="nonzero">
<path style=" stroke:none;fill-rule:nonzero;fill:rgb(100%,100%,100%);fill-opacity:1;" d="M 19.53125 17.835938 L 18.148438 19.21875 L 18.148438 30.78125 L 19.53125 32.164062 L 31.09375 32.164062 L 32.476562 30.78125 L 32.476562 19.21875 L 31.09375 17.835938 L 19.53125 17.835938 M 14.082031 19.503906 L 15.742188 19.503906 L 15.742188 20.203125 L 14.082031 20.203125 Z M 14.082031 21.5625 L 15.742188 21.5625 L 15.742188 22.261719 L 14.082031 22.261719 Z M 14.082031 23.621094 L 15.742188 23.621094 L 15.742188 24.320312 L 14.082031 24.320312 Z M 14.082031 25.679688 L 15.742188 25.679688 L 15.742188 26.378906 L 14.082031 26.378906 Z M 14.082031 27.738281 L 15.742188 27.738281 L 15.742188 28.4375 L 14.082031 28.4375 Z M 14.082031 29.796875 L 15.742188 29.796875 L 15.742188 30.496094 L 14.082031 30.496094 Z M 34.882812 19.503906 L 36.542969 19.503906 L 36.542969 20.203125 L 34.882812 20.203125 Z M 34.882812 21.5625 L 36.542969 21.5625 L 36.542969 22.261719 L 34.882812 22.261719 Z M 34.882812 23.621094 L 36.542969 23.621094 L 36.542969 24.320312 L 34.882812 24.320312 Z M 34.882812 25.679688 L 36.542969 25.679688 L 36.542969 26.378906 L 34.882812 26.378906 Z M 34.882812 27.738281 L 36.542969 27.738281 L 36.542969 28.4375 L 34.882812 28.4375 Z M 34.882812 29.796875 L 36.542969 29.796875 L 36.542969 30.496094 L 34.882812 30.496094 Z M 19.816406 34.570312 L 20.515625 34.570312 L 20.515625 36.230469 L 19.816406 36.230469 Z M 21.875 34.570312 L 22.574219 34.570312 L 22.574219 36.230469 L 21.875 36.230469 Z M 23.933594 34.570312 L 24.632812 34.570312 L 24.632812 36.230469 L 23.933594 36.230469 Z M 25.992188 34.570312 L 26.691406 34.570312 L 26.691406 36.230469 L 25.992188 36.230469 Z M 28.050781 34.570312 L 28.75 34.570312 L 28.75 36.230469 L 28.050781 36.230469 Z M 30.109375 34.570312 L 30.808594 34.570312 L 30.808594 36.230469 L 30.109375 36.230469 Z M 19.816406 13.769531 L 20.515625 13.769531 L 20.515625 15.429688 L 19.816406 15.429688 Z M 21.875 13.769531 L 22.574219 13.769531 L 22.574219 15.429688 L 21.875 15.429688 Z M 23.933594 13.769531 L 24.632812 13.769531 L 24.632812 15.429688 L 23.933594 15.429688 Z M 25.992188 13.769531 L 26.691406 13.769531 L 26.691406 15.429688 L 25.992188 15.429688 Z M 28.050781 13.769531 L 28.75 13.769531 L 28.75 15.429688 L 28.050781 15.429688 Z M 30.109375 13.769531 L 30.808594 13.769531 L 30.808594 15.429688 L 30.109375 15.429688 Z M 30.109375 13.769531 "/>
</g>
</g>
</g>
</svg>
