<?xml version="1.0" encoding="UTF-8"?>
<svg xmlns="http://www.w3.org/2000/svg" xmlns:xlink="http://www.w3.org/1999/xlink" width="50pt" height="50pt" viewBox="0 0 50 50" version="1.1">
<g id="surface1">
<path style=" stroke:none;fill-rule:nonzero;fill:rgb(21.960784%,16.862745%,45.098039%);fill-opacity:1;" d="M 48.4375 25 C 48.4375 37.945312 37.945312 48.4375 25 48.4375 C 12.054688 48.4375 1.5625 37.945312 1.5625 25 C 1.5625 12.054688 12.054688 1.5625 25 1.5625 C 37.945312 1.5625 48.4375 12.054688 48.4375 25 Z M 48.4375 25 "/>
<path style=" stroke:none;fill-rule:nonzero;fill:rgb(27.843137%,18.823529%,50.196078%);fill-opacity:1;" d="M 45.019531 25 C 45.019531 36.054688 36.054688 45.019531 25 45.019531 C 13.945312 45.019531 4.980469 36.054688 4.980469 25 C 4.980469 13.945312 13.945312 4.980469 25 4.980469 C 36.054688 4.980469 45.019531 13.945312 45.019531 25 Z M 45.019531 25 "/>
<path style=" stroke:none;fill-rule:nonzero;fill:rgb(21.960784%,16.862745%,45.098039%);fill-opacity:1;" d="M 39.109375 17.019531 C 39.105469 16.992188 39.101562 16.96875 39.09375 16.945312 C 39.078125 16.882812 39.050781 16.820312 39.023438 16.765625 C 39.019531 16.757812 39.015625 16.75 39.011719 16.742188 C 38.984375 16.691406 38.953125 16.644531 38.917969 16.601562 C 38.90625 16.589844 38.898438 16.578125 38.886719 16.566406 C 38.863281 16.542969 38.84375 16.519531 38.820312 16.496094 C 38.8125 16.492188 38.808594 16.488281 38.800781 16.480469 C 38.667969 16.367188 38.5 16.285156 38.3125 16.261719 C 38.296875 16.257812 38.28125 16.257812 38.261719 16.257812 C 38.238281 16.253906 38.210938 16.253906 38.183594 16.253906 L 31.957031 16.28125 C 31.148438 16.28125 30.722656 17.238281 31.261719 17.839844 L 31.347656 17.933594 L 14.417969 17.933594 C 14.027344 17.933594 13.675781 18.105469 13.429688 18.371094 C 13.382812 18.425781 13.335938 18.484375 13.296875 18.550781 C 13.265625 18.59375 13.238281 18.640625 13.214844 18.691406 C 13.207031 18.707031 13.199219 18.730469 13.191406 18.75 C 13.121094 18.90625 13.085938 19.082031 13.085938 19.265625 L 13.085938 34.199219 C 13.085938 34.933594 13.679688 35.53125 14.417969 35.53125 L 35.5625 35.53125 C 36.296875 35.53125 36.894531 34.933594 36.894531 34.199219 L 36.894531 24.113281 C 36.992188 24.191406 37.101562 24.25 37.214844 24.28125 C 37.257812 24.292969 37.300781 24.300781 37.34375 24.308594 C 37.386719 24.3125 37.429688 24.316406 37.472656 24.316406 C 37.496094 24.316406 37.519531 24.316406 37.542969 24.3125 C 37.59375 24.308594 37.648438 24.300781 37.699219 24.289062 C 37.707031 24.285156 37.71875 24.285156 37.730469 24.28125 C 37.761719 24.273438 37.789062 24.261719 37.820312 24.25 C 37.839844 24.242188 37.859375 24.234375 37.878906 24.222656 C 37.96875 24.183594 38.046875 24.128906 38.121094 24.0625 C 38.128906 24.054688 38.136719 24.046875 38.144531 24.039062 C 38.160156 24.023438 38.175781 24.007812 38.1875 23.992188 C 38.195312 23.980469 38.203125 23.972656 38.210938 23.964844 C 38.242188 23.921875 38.273438 23.875 38.300781 23.824219 C 38.320312 23.796875 38.332031 23.765625 38.34375 23.730469 C 38.355469 23.710938 38.363281 23.6875 38.367188 23.664062 C 38.386719 23.609375 38.398438 23.550781 38.40625 23.484375 L 39.121094 17.296875 C 39.128906 17.203125 39.125 17.109375 39.109375 17.019531 Z M 39.109375 17.019531 "/>
<path style=" stroke:none;fill-rule:nonzero;fill:rgb(65.490196%,16.078431%,45.098039%);fill-opacity:1;" d="M 35.5625 34.164062 L 14.417969 34.164062 C 13.679688 34.164062 13.085938 33.566406 13.085938 32.832031 L 13.085938 18.625 C 13.085938 17.886719 13.679688 17.292969 14.417969 17.292969 L 35.5625 17.292969 C 36.296875 17.292969 36.894531 17.886719 36.894531 18.625 L 36.894531 32.832031 C 36.894531 33.566406 36.296875 34.164062 35.5625 34.164062 Z M 35.5625 34.164062 "/>
<path style=" stroke:none;fill-rule:nonzero;fill:rgb(93.72549%,35.294118%,61.568627%);fill-opacity:1;" d="M 35.5625 33.441406 L 14.417969 33.441406 C 13.679688 33.441406 13.085938 32.84375 13.085938 32.109375 L 13.085938 17.898438 C 13.085938 17.164062 13.679688 16.566406 14.417969 16.566406 L 35.5625 16.566406 C 36.296875 16.566406 36.894531 17.164062 36.894531 17.898438 L 36.894531 32.109375 C 36.894531 32.84375 36.296875 33.441406 35.5625 33.441406 Z M 35.5625 33.441406 "/>
<path style=" stroke:none;fill-rule:nonzero;fill:rgb(10.980392%,68.235294%,89.411765%);fill-opacity:1;" d="M 35.5625 16.566406 L 14.417969 16.566406 C 13.679688 16.566406 13.085938 17.164062 13.085938 17.898438 L 13.085938 20.285156 L 36.894531 20.285156 L 36.894531 17.898438 C 36.894531 17.164062 36.296875 16.566406 35.5625 16.566406 Z M 35.5625 16.566406 "/>
<path style=" stroke:none;fill-rule:nonzero;fill:rgb(100%,100%,100%);fill-opacity:1;" d="M 15.808594 18.160156 C 15.808594 18.460938 15.566406 18.707031 15.261719 18.707031 C 14.960938 18.707031 14.71875 18.460938 14.71875 18.160156 C 14.71875 17.859375 14.960938 17.617188 15.261719 17.617188 C 15.5625 17.617188 15.808594 17.859375 15.808594 18.160156 Z M 15.808594 18.160156 "/>
<path style=" stroke:none;fill-rule:nonzero;fill:rgb(0%,60.392157%,86.666667%);fill-opacity:1;" d="M 13.085938 19.519531 L 36.914062 19.519531 L 36.914062 20.285156 L 13.085938 20.285156 Z M 13.085938 19.519531 "/>
<path style=" stroke:none;fill-rule:nonzero;fill:rgb(89.411765%,23.921569%,56.862745%);fill-opacity:1;" d="M 30.589844 20.285156 L 22.398438 27.617188 L 17.304688 23.09375 C 17 22.824219 16.539062 22.851562 16.269531 23.152344 L 15.933594 23.53125 L 15.394531 24.140625 C 15.128906 24.4375 15.152344 24.890625 15.441406 25.160156 C 15.445312 25.160156 15.449219 25.164062 15.449219 25.167969 C 15.453125 25.167969 15.453125 25.167969 15.457031 25.171875 L 21.265625 30.332031 L 20.644531 31.035156 C 20.539062 31.148438 20.5 31.289062 20.511719 31.421875 C 20.511719 31.429688 20.511719 31.4375 20.511719 31.445312 C 20.515625 31.46875 20.519531 31.492188 20.527344 31.511719 C 20.527344 31.519531 20.53125 31.523438 20.53125 31.53125 C 20.535156 31.542969 20.539062 31.554688 20.542969 31.566406 C 20.546875 31.570312 20.546875 31.578125 20.550781 31.582031 C 20.566406 31.628906 20.59375 31.671875 20.621094 31.707031 C 20.628906 31.71875 20.636719 31.726562 20.644531 31.734375 C 20.652344 31.746094 20.660156 31.753906 20.671875 31.761719 C 20.691406 31.785156 20.714844 31.804688 20.742188 31.820312 C 20.75 31.828125 20.761719 31.835938 20.773438 31.839844 C 20.777344 31.84375 20.785156 31.847656 20.789062 31.851562 C 20.800781 31.855469 20.8125 31.863281 20.824219 31.867188 C 20.839844 31.875 20.859375 31.878906 20.878906 31.886719 C 20.925781 31.902344 20.980469 31.910156 21.039062 31.910156 L 24.542969 31.910156 C 24.570312 31.910156 24.597656 31.910156 24.625 31.90625 C 24.894531 31.882812 25.164062 31.773438 25.382812 31.578125 L 35.667969 22.371094 L 36.777344 23.613281 C 36.8125 23.652344 36.851562 23.691406 36.894531 23.722656 L 36.894531 20.285156 Z M 30.589844 20.285156 "/>
<path style=" stroke:none;fill-rule:nonzero;fill:rgb(90.196078%,90.588235%,90.980392%);fill-opacity:1;" d="M 35.761719 16.582031 C 35.761719 16.582031 35.765625 16.582031 35.769531 16.585938 C 35.765625 16.582031 35.761719 16.582031 35.761719 16.582031 Z M 35.761719 16.582031 "/>
<path style=" stroke:none;fill-rule:nonzero;fill:rgb(7.45098%,42.745098%,62.745098%);fill-opacity:1;" d="M 35.761719 16.582031 C 35.695312 16.574219 35.628906 16.566406 35.5625 16.566406 L 31.058594 16.566406 C 30.976562 16.855469 31.027344 17.1875 31.261719 17.449219 L 32.371094 18.691406 L 30.589844 20.285156 L 36.894531 20.285156 L 36.894531 17.898438 C 36.894531 17.578125 36.78125 17.28125 36.589844 17.050781 C 36.582031 17.042969 36.578125 17.035156 36.570312 17.027344 C 36.472656 16.914062 36.355469 16.820312 36.226562 16.746094 C 36.207031 16.734375 36.1875 16.722656 36.167969 16.714844 C 36.046875 16.648438 35.910156 16.605469 35.769531 16.582031 C 35.765625 16.582031 35.761719 16.582031 35.761719 16.582031 Z M 35.761719 16.582031 "/>
<path style=" stroke:none;fill-rule:nonzero;fill:rgb(99.215686%,86.666667%,22.745098%);fill-opacity:1;" d="M 36.253906 20.871094 L 25.382812 30.601562 C 24.847656 31.082031 24.027344 31.035156 23.546875 30.5 L 21.984375 28.753906 C 21.507812 28.21875 21.550781 27.398438 22.085938 26.921875 L 32.957031 17.191406 Z M 36.253906 20.871094 "/>
<path style=" stroke:none;fill-rule:nonzero;fill:rgb(96.470588%,79.215686%,7.843137%);fill-opacity:1;" d="M 22.585938 29.425781 L 23.546875 30.5 C 24.027344 31.035156 24.847656 31.082031 25.382812 30.601562 L 36.253906 20.871094 L 35.210938 19.703125 L 24.246094 29.519531 C 23.761719 29.953125 23.019531 29.910156 22.585938 29.425781 Z M 22.585938 29.425781 "/>
<path style=" stroke:none;fill-rule:nonzero;fill:rgb(99.215686%,86.666667%,22.745098%);fill-opacity:1;" d="M 36.777344 22.636719 L 31.261719 16.472656 C 30.722656 15.871094 31.148438 14.914062 31.957031 14.914062 L 38.183594 14.886719 C 38.746094 14.882812 39.183594 15.375 39.121094 15.929688 L 38.40625 22.117188 C 38.3125 22.921875 37.316406 23.238281 36.777344 22.636719 Z M 36.777344 22.636719 "/>
<path style=" stroke:none;fill-rule:nonzero;fill:rgb(96.470588%,79.215686%,7.843137%);fill-opacity:1;" d="M 38.183594 14.886719 L 38.0625 14.886719 L 37.363281 20.953125 C 37.269531 21.753906 36.273438 22.070312 35.734375 21.46875 L 36.777344 22.636719 C 37.316406 23.238281 38.3125 22.921875 38.40625 22.117188 L 39.121094 15.929688 C 39.183594 15.371094 38.746094 14.882812 38.183594 14.886719 Z M 38.183594 14.886719 "/>
<path style=" stroke:none;fill-rule:nonzero;fill:rgb(100%,100%,100%);fill-opacity:1;" d="M 21.597656 29.648438 L 15.457031 24.195312 C 15.152344 23.925781 15.125 23.464844 15.394531 23.164062 L 16.269531 22.175781 C 16.539062 21.875 17 21.847656 17.304688 22.117188 L 23.445312 27.570312 Z M 21.597656 29.648438 "/>
<path style=" stroke:none;fill-rule:nonzero;fill:rgb(81.960784%,82.745098%,83.137255%);fill-opacity:1;" d="M 15.933594 22.554688 L 15.394531 23.164062 C 15.125 23.464844 15.152344 23.925781 15.457031 24.195312 L 21.597656 29.648438 L 22.183594 28.992188 L 15.988281 23.488281 C 15.714844 23.246094 15.691406 22.828125 15.933594 22.554688 Z M 15.933594 22.554688 "/>
<path style=" stroke:none;fill-rule:nonzero;fill:rgb(100%,100%,100%);fill-opacity:1;" d="M 20.644531 30.054688 L 23.734375 26.574219 C 24.039062 26.234375 24.601562 26.410156 24.652344 26.863281 L 25.066406 30.34375 C 25.105469 30.660156 24.859375 30.933594 24.542969 30.933594 L 21.039062 30.933594 C 20.582031 30.933594 20.339844 30.398438 20.644531 30.054688 Z M 20.644531 30.054688 "/>
<path style=" stroke:none;fill-rule:nonzero;fill:rgb(81.960784%,82.745098%,83.137255%);fill-opacity:1;" d="M 25.066406 30.34375 L 25.058594 30.277344 L 21.621094 30.273438 C 21.167969 30.273438 20.925781 29.738281 21.230469 29.398438 L 20.644531 30.054688 C 20.34375 30.398438 20.582031 30.933594 21.039062 30.933594 L 24.542969 30.933594 C 24.859375 30.933594 25.105469 30.660156 25.066406 30.34375 Z M 25.066406 30.34375 "/>
</g>
</svg>
