<?xml version="1.0" encoding="UTF-8"?>
<svg xmlns="http://www.w3.org/2000/svg" xmlns:xlink="http://www.w3.org/1999/xlink" width="50pt" height="50pt" viewBox="0 0 50 50" version="1.1">
<g id="surface1">
<path style=" stroke:none;fill-rule:nonzero;fill:rgb(100%,71.764706%,30.980392%);fill-opacity:1;" d="M 50 25 C 50 38.808594 38.808594 50 25 50 C 11.191406 50 0 38.808594 0 25 C 0 11.191406 11.191406 0 25 0 C 38.808594 0 50 11.191406 50 25 Z M 50 25 "/>
<path style=" stroke:none;fill-rule:nonzero;fill:rgb(100%,60.392157%,0%);fill-opacity:1;" d="M 49.8125 21.945312 L 41.667969 13.800781 L 35.191406 15.277344 L 36.007812 16.308594 L 28.0625 22.316406 L 22.640625 17.933594 L 21.058594 18.847656 L 11.488281 9.277344 L 8.449219 9.277344 L 8.449219 39.835938 L 17.457031 48.839844 C 19.835938 49.59375 22.371094 50 25 50 C 38.808594 50 50 38.808594 50 25 C 50 23.964844 49.9375 22.949219 49.8125 21.945312 Z M 49.8125 21.945312 "/>
<path style=" stroke:none;fill-rule:nonzero;fill:rgb(0%,93.72549%,81.960784%);fill-opacity:1;" d="M 38.996094 38.855469 L 9.96875 38.855469 L 9.96875 26.710938 L 22.472656 19.558594 L 27.601562 24.214844 L 38.996094 15.5625 Z M 38.996094 38.855469 "/>
<path style=" stroke:none;fill-rule:nonzero;fill:rgb(0%,80.784314%,70.588235%);fill-opacity:1;" d="M 38.996094 15.5625 L 38.996094 38.855469 L 24.734375 38.855469 L 24.734375 21.609375 L 27.601562 24.214844 Z M 38.996094 15.5625 "/>
<path style=" stroke:none;fill-rule:nonzero;fill:rgb(100%,32.156863%,63.137255%);fill-opacity:1;" d="M 41.667969 13.800781 L 35.191406 15.277344 L 36.007812 16.308594 L 28.0625 22.316406 L 22.640625 17.933594 L 8.859375 25.925781 L 10.332031 28.460938 L 22.367188 21.476562 L 28 26.035156 L 37.824219 18.609375 L 38.59375 19.585938 Z M 41.667969 13.800781 "/>
<path style=" stroke:none;fill-rule:nonzero;fill:rgb(90.980392%,4.705882%,41.568627%);fill-opacity:1;" d="M 41.667969 13.800781 L 38.59375 19.585938 L 37.824219 18.609375 L 28 26.035156 L 24.734375 23.390625 L 24.734375 19.625 L 28.0625 22.316406 L 36.007812 16.308594 L 35.191406 15.277344 Z M 41.667969 13.800781 "/>
<path style=" stroke:none;fill-rule:nonzero;fill:rgb(57.647059%,19.215686%,69.803922%);fill-opacity:1;" d="M 41.851562 39.835938 L 8.449219 39.835938 L 8.449219 9.277344 L 11.488281 9.277344 L 11.488281 36.796875 L 41.851562 36.796875 Z M 41.851562 39.835938 "/>
<path style=" stroke:none;fill-rule:nonzero;fill:rgb(40.784314%,12.156863%,48.235294%);fill-opacity:1;" d="M 24.734375 36.796875 L 41.851562 36.796875 L 41.851562 39.835938 L 24.734375 39.835938 Z M 24.734375 36.796875 "/>
</g>
</svg>
