<svg xmlns="http://www.w3.org/2000/svg" viewBox="0 0 3812.75 3691.959" height="13953.86" width="14410.392"><g fill="teal"><path d="M638.172 1139.534c-3.263-.014-6.781.255-10.627.873-35.162 5.652-35.177 30.443-68.396 43.282-33.219 12.84-49.902-5.498-79.725 13.968-29.824 19.465-19.754 42.118-44.879 67.358-25.124 25.24-47.824 15.275-67.152 45.188-19.328 29.912-.914 46.512-13.6 79.789-12.687 33.277-37.477 33.406-42.968 68.593-5.49 35.188 18.083 42.863 20.028 78.423 1.946 35.56-20.649 45.761-11.352 80.14 9.296 34.379 33.952 31.802 50.193 63.497 16.242 31.695-.25 50.204 22.225 77.829 22.476 27.625 43.953 15.243 71.681 37.591 27.729 22.35 20.19 45.966 51.959 62.061 31.769 16.096 46.352-3.952 80.774 5.186 34.42 9.139 37.14 33.78 72.709 35.562 35.569 1.782 40.737-22.463 75.9-28.116 35.162-5.652 47.669 15.753 80.887 2.914 33.22-12.839 28.08-37.09 57.903-56.556 29.823-19.465 49.954-4.998 75.08-30.238 25.124-25.24 10.564-45.305 29.892-75.218 19.328-29.912 43.603-24.884 56.29-58.161 12.686-33.278-8.776-45.686-3.286-80.874 5.49-35.188 29.713-40.467 27.767-76.028-1.946-35.56-26.599-38.166-35.895-72.545-9.297-34.379 10.683-49.054-5.558-80.749-16.241-31.695-39.823-24.048-62.299-51.673-22.476-27.626-10.192-49.159-37.92-71.508-27.728-22.348-46.161-5.771-77.93-21.866-31.77-16.096-29.306-40.764-63.727-49.902-34.421-9.138-44.518 13.503-80.087 11.721-31.679-1.587-41.317-20.431-67.887-20.541zm51.62 83.317a296.413 296.413 0 01209.586 86.813 296.417 296.417 0 0186.814 209.587 296.417 296.417 0 01-86.814 209.586 296.413 296.413 0 01-209.586 86.813 296.417 296.417 0 01-209.586-86.813 296.416 296.416 0 01-86.813-209.586 296.416 296.416 0 0186.813-209.587 296.417 296.417 0 01209.586-86.813zm0 24.332a272.051 272.051 0 00-192.38 79.687 272.051 272.051 0 00-79.687 192.38 272.05 272.05 0 0079.687 192.38 272.051 272.051 0 00192.38 79.688 272.05 272.05 0 00192.38-79.687 272.05 272.05 0 0079.688-192.38 272.051 272.051 0 00-79.687-192.381 272.05 272.05 0 00-192.38-79.687zm-21.364 682.815l-81.937 663.557c-.005.014-.017.023-.03.02l-110.456-135.824-150.287 83.08c-.013.007-.024-.016-.02-.03l195.232-640.64zm42.728 0l81.937 663.557c.006.014.017.023.03.02l110.456-135.824 150.287 83.08c.013.007.024-.016.02-.03l-195.231-640.64z" paint-order="stroke fill markers"/><path d="M2378.894 2487.68s-.785-4.774-4.333-10.007c-3.45-5.087-9.22-10.489-12.932-10.847-7.567-.731-23.194-2.176-42.847-4.975-20.066-2.86-48.899-7.749-83.095-16.345-37.654-9.465-84.583-24.115-134.752-47.059-50.412-23.054-104.655-54.736-156.234-98.473-53.618-45.613-103.309-106.968-141.85-178.658-40.1-74.592-66.541-157.316-75.276-242.468-9.802-95.563 3.181-188.283 36.168-274.613 43.873-114.817 118.017-205.503 193.076-273.963-74.998 68.405-150.079 158.26-195.989 272.823-34.542 86.198-49.653 179.43-41.932 276.542 6.88 86.537 31.61 171.34 70.563 248.648 37.396 74.219 86.616 138.86 140.901 188.015 51.808 47.065 106.785 81.929 158.226 107.833 51.145 25.756 99.316 42.911 138.082 54.345 35.197 10.38 65.12 16.768 86.04 20.596 21.003 3.843 36.505 5.766 45.165 6.603 3.822.369 11.107-3.917 15.436-8.528 4.466-4.758 5.583-9.47 5.583-9.47z"/><path d="M1919.391 2010.183a178.46 178.46 0 00-61.602 134.878 178.46 178.46 0 0061.602 134.88 178.46 178.46 0 0061.603-134.88 178.46 178.46 0 00-61.603-134.878zm-32.308-127.95a157.223 157.223 0 00-100.943 82.921 157.223 157.223 0 00-3.426 130.59 157.223 157.223 0 00100.942-82.922 157.223 157.223 0 003.427-130.59zm-7.214-151.384a151.454 159.192 2.38 00-114.136 56.223 151.454 159.192 2.38 00-34.66 127.296 151.454 159.192 2.38 00114.137-56.224 151.454 159.192 2.38 0034.659-127.295zm18.421-128.899a114.897 139.004 77.616 00-110.582 32.84 114.897 139.004 77.616 00-49.53 90.068 114.897 139.004 77.616 00110.583-32.84 114.897 139.004 77.616 0049.53-90.069zm74.869-126.758a124.417 135.09 73.51 00-111.32 11.436 124.417 135.09 73.51 00-67.397 85.704 124.417 135.09 73.51 00111.32-11.436 124.417 135.09 73.51 0067.397-85.704zm103.047-112.394a104.488 134.942 87.462 00-111.793-4.2 104.488 134.942 87.462 00-79.234 62.832 104.488 134.942 87.462 00111.794 4.2 104.488 134.942 87.462 0079.233-62.832zm116.583-122.412a104.488 134.942 87.462 00-111.794-4.2 104.488 134.942 87.462 00-79.233 62.832 104.488 134.942 87.462 00111.794 4.2 104.488 134.942 87.462 0079.233-62.832zm-205.009-12.976a81.428 104.08 44.731 00-70.857 47.755 81.428 104.08 44.731 00-22.573 77.623 81.428 104.08 44.731 0070.858-47.756 81.428 104.08 44.731 0022.572-77.622z" paint-order="stroke fill markers"/><path d="M1815.874 1295.026a118.645 95.537 73.148 0133.829 92.505 118.645 95.537 73.148 01-33.613 82.917 118.645 95.537 73.148 01-33.83-92.505 118.645 95.537 73.148 0133.614-82.917z" paint-order="stroke fill markers"/><path d="M1700.47 1425.744a146.306 117.81 65.136 0157.209 107.143 146.306 117.81 65.136 01-26.794 107.027 146.306 117.81 65.136 01-57.208-107.144 146.306 117.81 65.136 0126.794-107.026zm-96.964 195.236a146.306 117.81 41.09 0195.9 74.536 146.306 117.81 41.09 0119.139 108.657 146.306 117.81 41.09 01-95.9-74.537 146.306 117.81 41.09 01-19.139-108.657zm-45.286 188.854a164.697 135.598 37.849 01119.73 64.406 164.697 135.598 37.849 0143.604 120.779 164.697 135.598 37.849 01-119.731-64.406 164.697 135.598 37.849 01-43.603-120.78zm-24.921 225.476a177.006 139.678 11.099 01146.04 10.174 177.006 139.678 11.099 0195.989 95.022 177.006 139.678 11.099 01-146.04-10.173 177.006 139.678 11.099 01-95.99-95.022zm90.911 145.994a191.632 153.643 11.96 01157.999 11.198 191.632 153.643 11.96 01103.85 104.594 191.632 153.643 11.96 01-157.999-11.198 191.632 153.643 11.96 01-103.85-104.594z" paint-order="stroke fill markers"/><path d="M2657.156 2487.68s.785-4.774 4.333-10.007c3.45-5.087 9.22-10.489 12.932-10.847 7.567-.731 23.194-2.176 42.847-4.975 20.066-2.86 48.899-7.749 83.095-16.345 37.654-9.465 84.584-24.115 134.752-47.059 50.412-23.054 104.655-54.736 156.234-98.473 53.619-45.613 103.31-106.968 141.85-178.658 40.1-74.592 66.541-157.316 75.276-242.468 9.803-95.563-3.18-188.283-36.168-274.613-43.873-114.817-118.017-205.503-193.076-273.963 74.998 68.405 150.079 158.26 195.989 272.823 34.543 86.198 49.653 179.43 41.932 276.542-6.88 86.537-31.61 171.34-70.562 248.648-37.397 74.219-86.617 138.86-140.902 188.015-51.807 47.065-106.785 81.929-158.226 107.833-51.145 25.756-99.316 42.911-138.082 54.345-35.197 10.38-65.12 16.768-86.04 20.596-21.003 3.843-36.505 5.766-45.165 6.603-3.822.369-11.107-3.917-15.436-8.528-4.466-4.758-5.583-9.47-5.583-9.47z"/><path d="M3116.659 2010.183a178.46 178.46 0 0161.602 134.878 178.46 178.46 0 01-61.602 134.88 178.46 178.46 0 01-61.603-134.88 178.46 178.46 0 0161.603-134.878zm32.308-127.95a157.223 157.223 0 01100.943 82.921 157.223 157.223 0 013.426 130.59 157.223 157.223 0 01-100.942-82.922 157.223 157.223 0 01-3.427-130.59zm7.214-151.384a151.454 159.192-2.38 01114.136 56.223 151.454 159.192-2.38 0134.66 127.296 151.454 159.192-2.38 01-114.137-56.224 151.454 159.192-2.38 01-34.659-127.295zm-18.421-128.899a114.897 139.004-77.616 01110.582 32.84 114.897 139.004-77.616 0149.53 90.068 114.897 139.004-77.616 01-110.583-32.84 114.897 139.004-77.616 01-49.53-90.069zm-74.869-126.758a124.417 135.09-73.51 01111.32 11.436 124.417 135.09-73.51 0167.397 85.704 124.417 135.09-73.51 01-111.32-11.436 124.417 135.09-73.51 01-67.397-85.704zm-103.047-112.394a104.488 134.942-87.462 01111.793-4.2 104.488 134.942-87.462 0179.234 62.832 104.488 134.942-87.462 01-111.794 4.2 104.488 134.942-87.462 01-79.233-62.832zm-116.582-122.412a104.488 134.942-87.462 01111.793-4.2 104.488 134.942-87.462 0179.233 62.832 104.488 134.942-87.462 01-111.793 4.2 104.488 134.942-87.462 01-79.233-62.832zm205.008-12.976a81.428 104.08-44.731 0170.857 47.755 81.428 104.08-44.731 0122.573 77.623 81.428 104.08-44.731 01-70.858-47.756 81.428 104.08-44.731 01-22.572-77.622zm171.906 67.616a95.537 118.645 16.852 00-33.829 92.505 95.537 118.645 16.852 0033.614 82.917 95.537 118.645 16.852 0033.829-92.505 95.537 118.645 16.852 00-33.614-82.917zm115.404 130.718a117.81 146.306 24.864 00-57.209 107.143 117.81 146.306 24.864 0026.794 107.027 117.81 146.306 24.864 0057.208-107.144 117.81 146.306 24.864 00-26.794-107.026zm96.964 195.236a117.81 146.306 48.91 00-95.9 74.536 117.81 146.306 48.91 00-19.139 108.657 117.81 146.306 48.91 0095.9-74.537 117.81 146.306 48.91 0019.14-108.657zm45.286 188.854a135.598 164.697 52.151 00-119.73 64.406 135.598 164.697 52.151 00-43.604 120.779 135.598 164.697 52.151 00119.731-64.406 135.598 164.697 52.151 0043.603-120.78zm24.921 225.476a139.678 177.006 78.901 00-146.04 10.174 139.678 177.006 78.901 00-95.989 95.022 139.678 177.006 78.901 00146.04-10.173 139.678 177.006 78.901 0095.99-95.022zm-90.911 145.994a153.643 191.632 78.04 00-157.998 11.198 153.643 191.632 78.04 00-103.85 104.594 153.643 191.632 78.04 00157.998-11.198 153.643 191.632 78.04 00103.85-104.594zm-821.014-593.576l-72.692-38.076-72.608 38.235 13.75-80.9-58.801-57.24 81.19-11.922 36.267-73.611 36.428 73.532 81.215 11.745-58.676 57.367zM714.856 2957.897s401.909 84.257 1144.745 84.257c742.837 0 1238.293-84.257 1238.293-84.257.032-.003.058.025.058.057v476.516a.057.057 0 01-.058.057s-503.066 86.254-1228.663 84.257c-725.598-1.996-1154.375-84.257-1154.375-84.257-.032-.002-.057-.025-.057-.057v-476.516c0-.031.025-.057.057-.057z" paint-order="stroke fill markers"/><path d="M295.902 2757.031a.057.057 0 00-.058.057l166.82 264.927-166.82 211.589c-.02.025.026.055.058.057 0 0 132.774 25.47 375.565 48.409v-355.38l294.123-61.333zm3220.946 0c.032 0 .057.025.057.057l-166.82 264.927 166.82 211.589c.02.025-.025.055-.057.057 0 0-132.775 25.47-375.565 48.409v-355.38l-294.124-61.333z" paint-order="stroke fill markers"/><path d="M295.903 2757.031a.057.057 0 00-.058.057l166.82 264.927-166.82 211.589c-.02.025.026.055.058.057 0 0 132.774 25.47 375.565 48.409v-355.38l294.123-61.333z" paint-order="stroke fill markers"/><path d="M992.037 2889.06l-221.903 48.694 222.12 29.476zm1828.676 0l221.904 48.694-222.121 29.476z"/><path d="M714.856 734.062s401.909-84.257 1144.745-84.257c742.837 0 1238.293 84.257 1238.293 84.257.032.003.058-.026.058-.057V257.489a.057.057 0 00-.058-.058s-503.066-86.254-1228.663-84.257c-725.598 1.997-1154.375 84.257-1154.375 84.257-.032.003-.057.026-.057.058v476.515c0 .032.025.058.057.058z" paint-order="stroke fill markers"/><path d="M295.902 934.928a.057.057 0 01-.058-.057l166.82-264.927-166.82-211.59c-.02-.024.026-.054.058-.056 0 0 132.774-25.47 375.565-48.41V765.27l294.123 61.333zm3220.946 0a.057.057 0 00.057-.057l-166.82-264.927 166.82-211.59c.02-.024-.025-.054-.057-.057 0 0-132.775-25.47-375.565-48.408v355.38l-294.124 61.333z" paint-order="stroke fill markers"/><path d="M295.903 934.928a.057.057 0 01-.058-.057l166.82-264.927-166.82-211.59c-.02-.024.026-.054.058-.057 0 0 132.774-25.47 375.565-48.408v355.38l294.123 61.333z" paint-order="stroke fill markers"/><path d="M992.037 802.9l-221.903-48.695 222.12-29.476zm1828.676 0l221.904-48.695-222.121-29.476z"/><path d="M2051.69 1729.621v5.865h1.954c11.73 0 13.685 7.82 13.685 19.55v103.616h25.416v-52.199h18.572c11.535 0 46.92-3.714 46.92-37.536 0-35.777-35.19-39.296-52.785-39.296h-53.763zm122.417 0v5.865h1.954c11.73 0 13.685 7.82 13.685 19.55v103.616h25.611v-59.041h7.82l19.55 32.648c12.708 21.114 24.047 28.348 37.732 28.348 5.083 0 11.34-.978 13.49-1.955v-4.888c-5.67-.977-14.272-4.887-24.243-21.505l-20.527-34.213c16.031-4.105 31.67-12.12 31.67-33.04 0-31.475-34.993-35.385-52.784-35.385h-53.958zm130.054 0v5.865h1.955c11.73 0 13.684 7.82 13.684 19.55v103.616h72.336c10.753 0 14.076-5.279 17.008-13.686l5.67-15.444-5.278-1.955c-6.843 17.009-16.618 22.287-30.89 22.287h-33.43v-53.763h50.83v-8.797h-50.83v-48.876h31.476c15.64 0 24.437 6.843 24.437 23.46h5.865v-16.617c0-7.82-3.128-15.64-16.617-15.64h-86.216zm138.533 0v129.03h9.775V1752.3l52.395 106.353h6.451l42.815-102.443v69.208c0 29.52 11.34 42.032 39.687 42.032v-4.887c-10.948-2.15-14.272-13.49-14.272-37.145v-95.796h-25.61l-40.078 95.991-47.311-95.991h-23.852zm178.762 0v103.615c0 19.746 3.91 25.416 17.595 25.416h23.46v-5.865h-1.955c-11.73 0-13.685-7.82-13.685-19.55V1729.62h-25.415zm56.289 0v5.865h1.76c10.165.782 11.925 8.407 11.925 19.55v47.311c0 38.905 17.595 58.26 52.785 58.26 38.123 0 51.808-21.505 51.808-58.26v-72.726h-9.775v72.726c0 34.213-11.535 49.462-38.123 49.462-20.527 0-30.89-16.422-31.085-43.596l-.195-53.177c0-19.355-3.91-25.415-17.595-25.415h-21.505zm155.493 0v129.03h9.775V1752.3l52.395 106.353h6.451l42.815-102.443v69.208c0 29.52 11.34 42.032 39.687 42.032v-4.887c-10.948-2.15-14.272-13.49-14.272-37.145v-95.796h-25.61l-40.078 95.991-47.311-95.991h-23.852zm-727.786 7.82c12.316 0 25.415 6.451 25.415 30.498 0 24.242-13.098 30.694-26.392 30.694h-11.73v-59.823c6.06-1.174 9.774-1.369 12.707-1.369zm122.026 0c12.317 0 26.002 6.843 26.002 27.175 0 20.527-13.88 27.174-26.393 27.174h-11.73v-52.98c6.06-1.174 9.971-1.369 12.121-1.369zm-74.08 189.726c-38.905 0-64.516 29.912-64.516 68.425 0 31.476 17.008 56.891 44.183 65.298 23.851 28.934 54.154 39.295 83.87 39.295v-5.082c-16.422 0-38.123-14.663-44.965-33.627 28.152-7.82 45.747-33.43 45.747-65.884 0-38.513-25.415-68.425-64.32-68.425zm84.174 3.91v5.865h1.76c10.166.782 11.925 8.407 11.925 19.55v47.311c0 38.905 17.596 58.26 52.786 58.26 38.123 0 51.807-21.506 51.807-58.26v-72.726h-9.775v72.726c0 34.213-11.534 49.462-38.122 49.462-20.527 0-30.89-16.422-31.085-43.596l-.195-53.177c0-19.354-3.91-25.415-17.595-25.415h-21.506zm194.918 0l-57.673 129.03h10.167l16.03-35.58h52.004l4.497 10.948c9.384 22.287 25.61 25.415 38.513 25.415 2.933 0 7.233-.391 9.384-.978v-4.887c-8.798-.978-15.64-8.016-20.332-19.55l-43.792-104.398h-8.798zm79.86 0v5.865h1.954c11.73 0 13.685 7.82 13.685 19.55v103.616h92.863v-8.798h-67.447v-94.818c0-19.354-3.91-25.415-17.595-25.415h-23.46zm131.11 0v103.616c0 19.745 3.91 25.415 17.596 25.415h23.46v-5.865h-1.955c-11.73 0-13.686-7.82-13.686-19.55v-103.616h-25.415zm73.643 0c-13.49 0-16.617 7.82-16.617 15.64v16.618h5.865c0-17.4 8.602-23.46 22.482-23.46h13.88v120.233h25.416v-120.233h40.86v-8.798h-91.886zm99.666 0v3.91c8.993.978 19.16 11.535 26.002 21.505l34.603 52.003v51.613h25.416v-56.891l44.378-72.14h-12.707l-37.928 61.583-26.588-40.078c-6.256-9.97-17.204-21.505-31.866-21.505h-21.31zm-663.372 4.887c23.656 0 37.34 21.506 37.34 59.628 0 38.123-13.684 59.628-37.34 59.628-23.655 0-37.145-21.505-37.145-59.628 0-38.122 13.49-59.628 37.145-59.628zm274.401 28.74l21.505 51.025h-44.183l22.678-51.026z" style="line-height:58.6506px;-inkscape-font-specification:'El Messiri Bold'" font-weight="700" font-size="195.501" font-family="El Messiri" letter-spacing="9.775" word-spacing="0" fill-opacity=".965"/></g></svg>